<svg width="104" height="64" viewBox="0 0 104 64" fill="none" xmlns="http://www.w3.org/2000/svg">
<path d="M3.34018 24.7858C3.35129 24.6009 3.40493 24.4804 3.50111 24.4243C3.60672 24.3656 3.73027 24.3174 3.87176 24.2794C4.08872 24.2213 4.36843 24.3031 4.71091 24.5247C5.06029 24.7344 5.44092 25.0419 5.85281 25.4471C6.2647 25.8524 6.69555 26.3284 7.14535 26.8751C7.60459 27.4193 8.05599 27.9909 8.49957 28.5899C8.95005 29.1769 9.38166 29.7689 9.79441 30.3661C10.2072 30.9632 10.573 31.5172 10.8919 32.0283C11.2177 32.5274 11.4821 32.9671 11.6852 33.3474C11.8882 33.7278 12.0099 33.9934 12.0503 34.1443C12.0908 34.2952 12.0922 34.4516 12.0547 34.6133C12.024 34.763 11.9191 34.8619 11.7399 34.9099C11.6267 34.9403 11.5188 34.9338 11.4162 34.8905C11.3205 34.8353 11.2305 34.7634 11.1461 34.6748C11.0617 34.5862 10.982 34.4963 10.907 34.4052C10.8321 34.3141 10.7656 34.2358 10.7076 34.1705C10.6421 34.0768 10.5088 33.9002 10.3079 33.6406C10.1163 33.3786 9.91155 33.1048 9.69355 32.8195C9.48499 32.5317 9.2862 32.2614 9.09718 32.0087C8.90816 31.7561 8.77364 31.5748 8.69361 31.4648C8.00298 31.5285 7.31016 31.6029 6.61515 31.6881C5.92705 31.7612 5.20248 31.8492 4.44144 31.952L4.2858 31.9937C4.33798 33.5468 4.34575 34.7832 4.30911 35.703C4.2819 36.6202 4.2267 37.282 4.14353 37.6885C4.06978 38.0924 3.97218 38.2753 3.85073 38.237C3.74123 38.2057 3.61833 38.0112 3.48203 37.6534C3.35263 37.2837 3.22339 36.7825 3.0943 36.1498C2.97465 35.5146 2.87158 34.8092 2.7851 34.0337C2.70553 33.2462 2.64069 32.4194 2.59058 31.5532C2.54048 30.6871 2.53097 29.8404 2.56207 29.0131C2.60259 28.1833 2.68186 27.4038 2.79988 26.6746C2.92481 25.9334 3.10491 25.3038 3.34018 24.7858ZM4.33514 29.8574C4.42866 30.2064 4.61136 30.4355 4.88324 30.5446C5.1526 30.6443 5.45395 30.6748 5.78731 30.636C6.12066 30.5972 6.46059 30.5264 6.80708 30.4234C7.163 30.3179 7.4683 30.2311 7.72299 30.1628C7.62189 29.7855 7.45189 29.3963 7.213 28.9953C6.97158 28.5848 6.6984 28.1879 6.39348 27.8045C6.08856 27.4211 5.77327 27.0557 5.44763 26.7082C5.1289 26.3488 4.83569 26.028 4.568 25.7459C4.49204 25.8775 4.43066 26.1012 4.38386 26.417C4.34396 26.7209 4.30946 27.0638 4.28035 27.4456C4.25815 27.8156 4.24411 28.1782 4.23825 28.5337C4.23238 28.8891 4.23367 29.1769 4.24211 29.397C4.2497 29.4253 4.2652 29.5021 4.28863 29.6272C4.30952 29.7429 4.32503 29.8197 4.33514 29.8574ZM18.443 28.4581C18.1978 27.5432 18.228 26.8071 18.5337 26.25C18.8394 25.693 19.4309 25.2969 20.3081 25.0618C20.6666 24.9658 21.0433 24.9002 21.4383 24.8651C21.8428 24.8275 22.2281 24.8507 22.5943 24.9345C22.958 25.009 23.2781 25.1658 23.5545 25.4052C23.8404 25.642 24.0452 25.9915 24.1691 26.4537C24.3056 26.9631 24.3213 27.4745 24.2162 27.9879C24.1181 28.4894 23.9523 28.9837 23.7188 29.4709C23.4923 29.9461 23.2217 30.4079 22.9071 30.8561C22.5994 31.2924 22.3115 31.7083 22.0433 32.1036C22.0346 32.1464 22.0372 32.2317 22.0512 32.3593C22.0721 32.4751 22.0876 32.5518 22.0977 32.5895C22.1811 32.9008 22.3541 33.1881 22.6168 33.4513C22.8914 33.7215 23.1801 33.9879 23.483 34.2505C23.7884 34.5225 24.0775 34.809 24.3502 35.11C24.623 35.411 24.8099 35.7501 24.911 36.1274C24.9717 36.3538 24.9599 36.4985 24.8757 36.5615C24.794 36.634 24.6022 36.7106 24.3004 36.7915C24.0915 36.7666 23.8548 36.6379 23.5903 36.4055C23.3378 36.18 23.0629 35.8897 22.7655 35.5346C22.4776 35.177 22.1758 34.7676 21.8601 34.3062C21.5563 33.8518 21.2548 33.3866 20.9554 32.9108C20.6629 32.423 20.3777 31.9433 20.0997 31.4719C19.8287 30.9885 19.5831 30.5437 19.3631 30.1376C19.1431 29.7315 18.9489 29.3841 18.7806 29.0956C18.6192 28.7951 18.5066 28.5826 18.443 28.4581ZM19.6798 28.2632C19.7177 28.4047 19.7827 28.6097 19.8749 28.8782C19.9645 29.1373 20.073 29.3913 20.2004 29.6402C20.3372 29.8867 20.4934 30.0925 20.6691 30.2577C20.8423 30.4135 21.0374 30.4624 21.2544 30.4042C21.5468 30.3259 21.8126 30.1485 22.052 29.872C22.3008 29.5931 22.4979 29.2723 22.6434 28.9098C22.7984 28.5448 22.9011 28.1735 22.9516 27.796C23.009 27.4066 22.9998 27.0703 22.9239 26.7873C22.8608 26.5515 22.7549 26.3828 22.6063 26.281C22.4552 26.1699 22.2799 26.1006 22.0805 26.0731C21.8879 26.0337 21.6901 26.0311 21.4869 26.0653C21.2813 26.0901 21.0888 26.1265 20.9096 26.1745C20.3719 26.3186 19.9961 26.576 19.782 26.9468C19.5748 27.3056 19.5408 27.7444 19.6798 28.2632ZM32.1155 28.4342C31.8228 28.7755 31.5709 29.0806 31.3599 29.3495C31.1557 29.6064 30.9487 29.8337 30.7389 30.0315C30.529 30.2293 30.2914 30.3991 30.0261 30.5409C29.7703 30.6803 29.4395 30.8043 29.0339 30.913C28.1567 31.148 27.4439 31.0913 26.8955 30.7428C26.3447 30.3849 25.9454 29.7438 25.6977 28.8194C25.6017 28.4609 25.549 28.0757 25.5397 27.6636C25.5304 27.2516 25.5648 26.8329 25.6429 26.4076C25.7279 25.9703 25.8523 25.5477 26.016 25.1399C26.1772 24.7227 26.3827 24.339 26.6327 23.9889C26.8826 23.6389 27.1666 23.3404 27.4846 23.0934C27.8095 22.8345 28.1748 22.6507 28.5804 22.542C29.2773 22.426 29.8557 22.453 30.3158 22.6229C30.7733 22.7834 31.158 23.0494 31.4698 23.4208C31.7791 23.7827 32.041 24.213 32.2555 24.7116C32.4674 25.2008 32.6655 25.7138 32.8499 26.2508C33.0436 26.7853 33.2468 27.3172 33.4594 27.8467C33.6721 28.3761 33.9441 28.8441 34.2754 29.2507C34.2362 29.5948 34.1765 29.8434 34.0961 29.9963C34.0277 30.1562 33.9161 30.2114 33.7613 30.1619C33.6065 30.1124 33.3953 29.9465 33.1276 29.6644C32.8693 29.3798 32.532 28.9697 32.1155 28.4342ZM26.908 28.5254C27.052 29.0631 27.2572 29.4327 27.5236 29.6343C27.7968 29.824 28.1928 29.8493 28.7117 29.7103C29.0984 29.6066 29.4486 29.442 29.7622 29.2165C30.0828 28.9789 30.3435 28.7068 30.5444 28.4003C30.7428 28.0842 30.8767 27.7349 30.9461 27.3524C31.0154 26.9698 30.9945 26.571 30.8833 26.156C30.8378 25.9862 30.7793 25.7491 30.7079 25.4447C30.6339 25.1309 30.5329 24.8294 30.4049 24.5402C30.2768 24.251 30.1177 24.0156 29.9275 23.834C29.7348 23.643 29.5064 23.5829 29.2422 23.6537C28.7517 23.7851 28.3331 24.0338 27.9863 24.3997C27.6369 24.7561 27.3632 25.1682 27.1649 25.6358C26.9667 26.1034 26.8459 26.5958 26.8025 27.113C26.7565 27.6207 26.7917 28.0915 26.908 28.5254ZM33.7148 23.5926C33.692 23.5078 33.674 23.4216 33.6607 23.3342C33.6449 23.2373 33.6422 23.1521 33.6528 23.0785C33.6609 22.9954 33.6869 22.9227 33.7309 22.8604C33.7843 22.7955 33.8676 22.748 33.9808 22.7176C34.0751 22.6923 34.1991 22.74 34.3527 22.8606C34.5133 22.9692 34.6852 23.1203 34.8685 23.3139C35.0492 23.4979 35.2316 23.7069 35.4156 23.9407C35.609 24.1719 35.7784 24.3894 35.924 24.593C36.0764 24.7847 36.2025 24.9532 36.302 25.0984C36.4016 25.2435 36.4574 25.3196 36.4693 25.3265C36.5035 24.9635 36.5442 24.5684 36.5915 24.1412C36.6388 23.714 36.7267 23.3063 36.8552 22.918C36.9906 22.5178 37.1789 22.164 37.4201 21.8567C37.6707 21.5469 38.0177 21.3326 38.461 21.2138C38.6874 21.1532 38.9098 21.134 39.1281 21.1564C39.3533 21.1668 39.5603 21.2226 39.7492 21.3236C39.9449 21.4127 40.1152 21.539 40.2601 21.7024C40.405 21.8657 40.5103 22.0701 40.576 22.3153C40.6316 22.5228 40.5859 22.6918 40.4388 22.8222C40.3012 22.95 40.1287 23.0418 39.9211 23.0974L39.7796 23.1353L39.0082 22.6899C38.9893 22.695 38.9739 22.694 38.9619 22.6871C38.9431 22.6922 38.9242 22.6972 38.9054 22.7023C38.8934 22.6954 38.878 22.6945 38.8591 22.6995C38.529 22.788 38.2948 22.9518 38.1567 23.191C38.0255 23.4183 37.9494 23.6813 37.9284 23.9801C37.9048 24.2695 37.9193 24.5689 37.9719 24.8784C38.0314 25.1759 38.094 25.4472 38.1597 25.6925C38.2103 25.8811 38.281 26.0695 38.3718 26.2574C38.46 26.436 38.553 26.6133 38.6508 26.7893C38.7459 26.9559 38.8389 27.1332 38.9298 27.3211C39.018 27.4997 39.09 27.6927 39.1456 27.9002C39.2517 28.2964 39.0926 28.5514 38.6681 28.6651C38.4323 28.7283 38.1542 28.6714 37.8338 28.4944C37.5108 28.3079 37.1702 28.0555 36.8119 27.737C36.463 27.4159 36.1134 27.0546 35.7632 26.6531C35.4104 26.2421 35.0898 25.8377 34.8012 25.4398C34.5126 25.042 34.2684 24.6777 34.0686 24.3471C33.8782 24.0139 33.7603 23.7624 33.7148 23.5926ZM41.4834 23.6645C41.347 23.1551 41.2718 22.6293 41.2579 22.0871C41.2441 21.5449 41.3149 21.0355 41.4703 20.5592C41.6352 20.0802 41.8957 19.6566 42.252 19.2882C42.6176 18.9172 43.107 18.6496 43.7202 18.4853C44.0692 18.3918 44.3934 18.3757 44.6929 18.4369C44.9899 18.4888 45.2558 18.5945 45.4907 18.754C45.7255 18.9135 45.9233 19.1233 46.084 19.3836C46.2516 19.6319 46.3759 19.9069 46.4567 20.2088C46.5856 20.6899 46.5976 21.1871 46.4925 21.7006C46.3969 22.2115 46.2071 22.692 45.9234 23.1421C45.6465 23.5803 45.2915 23.9534 44.8584 24.2615C44.4229 24.5602 43.9425 24.7294 43.4172 24.769C43.5 25.04 43.649 25.2377 43.8643 25.362C44.0865 25.4743 44.3316 25.5401 44.5996 25.5593C44.8676 25.5784 45.1374 25.5668 45.4091 25.5243C45.6783 25.4724 45.9166 25.4187 46.1242 25.3631C46.3411 25.3049 46.5389 25.2317 46.7174 25.1434C46.896 25.0552 47.0733 24.9622 47.2493 24.8644C47.4253 24.7667 47.6026 24.6737 47.7811 24.5855C47.9691 24.4946 48.1716 24.4202 48.3885 24.362C48.4734 24.3393 48.5596 24.3213 48.647 24.3079C48.7344 24.2946 48.8209 24.2967 48.9065 24.3142C48.9895 24.3223 49.0648 24.3578 49.1321 24.4206C49.197 24.474 49.2433 24.5526 49.2711 24.6563C49.3192 24.8355 49.2936 25.0042 49.1944 25.1622C49.0926 25.3108 48.9494 25.4553 48.7646 25.5958C48.5893 25.7338 48.3853 25.8592 48.1527 25.9721C47.9175 26.0755 47.6858 26.173 47.4576 26.2645C47.2363 26.344 47.0265 26.4103 46.8285 26.4634C46.6423 26.5234 46.5021 26.566 46.4078 26.5913C45.8041 26.753 45.2364 26.804 44.7048 26.7443C44.1706 26.6751 43.693 26.515 43.2718 26.2638C42.8482 26.0033 42.4823 25.6565 42.1741 25.2234C41.8729 24.7784 41.6427 24.2588 41.4834 23.6645ZM42.7368 22.3429C42.8253 22.6731 42.9322 22.9022 43.0575 23.0304C43.1923 23.1561 43.4342 23.1721 43.7832 23.0786C44.0285 23.0129 44.2576 22.906 44.4707 22.7579C44.6813 22.6004 44.8594 22.4162 45.0051 22.2053C45.1602 21.9918 45.2653 21.7615 45.3203 21.5142C45.3754 21.2669 45.3688 21.0159 45.3006 20.7612C45.2627 20.6197 45.2093 20.4773 45.1406 20.334C45.0813 20.1881 44.9975 20.064 44.8891 19.9616C44.7783 19.8497 44.6515 19.7725 44.5086 19.7299C44.3727 19.6753 44.2104 19.6733 44.0217 19.7239C43.7387 19.7997 43.497 19.9352 43.2966 20.1305C43.103 20.3138 42.9539 20.5306 42.8491 20.7811C42.7419 21.0222 42.6799 21.2814 42.6632 21.5589C42.6441 21.8269 42.6686 22.0882 42.7368 22.3429ZM49.1551 20.7141C49.0894 20.4689 49.1039 20.278 49.1987 20.1413C49.291 19.9953 49.474 19.8856 49.7475 19.8123L49.889 19.7744C49.9577 19.9177 50.0375 20.0834 50.1283 20.2714C50.2191 20.4594 50.3301 20.647 50.4611 20.8343C50.5922 21.0216 50.7336 21.191 50.8854 21.3424C51.0347 21.4844 51.1987 21.587 51.3774 21.6504C51.2984 21.3177 51.2939 20.9802 51.3639 20.6379C51.4409 20.2836 51.5609 19.9583 51.7241 19.6618C51.8943 19.3534 52.0946 19.0823 52.3252 18.8486C52.5627 18.603 52.8106 18.4153 53.069 18.2854L53.3803 18.202C53.8331 18.0807 54.2476 18.0808 54.6239 18.2024C54.9977 18.3145 55.3326 18.5079 55.6286 18.7824C55.9315 19.045 56.1952 19.3687 56.4196 19.7534C56.644 20.1381 56.8426 20.5398 57.0155 20.9586C57.1952 21.3653 57.3442 21.7703 57.4623 22.1734C57.5873 22.5645 57.6877 22.9016 57.7636 23.1845L56.7307 23.4613C56.5224 22.9105 56.3063 22.3871 56.0824 21.891C55.9985 21.6911 55.9027 21.4842 55.7948 21.2705C55.6845 21.0473 55.5745 20.8442 55.4648 20.6613C55.3526 20.4689 55.2407 20.2967 55.1292 20.1446C55.0151 19.9831 54.8992 19.8524 54.7815 19.7525C54.7336 19.7249 54.6679 19.6869 54.5841 19.6386C54.5099 19.5877 54.4308 19.5381 54.3471 19.4898C54.2634 19.4414 54.1869 19.4013 54.1177 19.3693C54.0485 19.3373 54.0091 19.3225 53.9997 19.325C53.6965 19.3254 53.4664 19.4477 53.3094 19.692C53.1499 19.9268 53.0317 20.2214 52.9547 20.5756C52.8778 20.9299 52.8405 21.319 52.8429 21.743C52.8547 22.1644 52.8769 22.5679 52.9095 22.9535C52.9395 23.3296 52.977 23.6583 53.022 23.9394C53.0645 24.2111 53.0886 24.3765 53.0943 24.4357C52.904 24.6686 52.6962 24.7799 52.471 24.7695C52.2432 24.7496 52.0047 24.6518 51.7554 24.476C51.5155 24.2976 51.2746 24.0588 51.0327 23.7597C50.8002 23.458 50.5721 23.135 50.3484 22.7905C50.1221 22.4366 49.9053 22.0802 49.6979 21.7213C49.4999 21.3598 49.319 21.0241 49.1551 20.7141ZM56.4031 16.2395C56.3955 16.2112 56.3939 16.1863 56.3983 16.1649C56.3932 16.1461 56.3916 16.1212 56.3935 16.0904C56.4186 16.0331 56.4587 15.9566 56.514 15.8609C56.5692 15.7653 56.6063 15.7149 56.6251 15.7098L59.4692 14.9478C59.4413 14.844 59.383 14.6827 59.294 14.4639C59.205 14.2451 59.1098 14.0027 59.0082 13.7368C58.916 13.4683 58.8355 13.1866 58.7665 12.8916C58.6951 12.5872 58.6608 12.3083 58.6636 12.0548C58.6734 11.7893 58.7335 11.5609 58.844 11.3695C58.9614 11.1662 59.1616 11.0266 59.4446 10.9508C59.6998 11.9035 59.9706 12.6499 60.2568 13.1899C60.5431 13.7299 60.8364 14.1265 61.1367 14.3796C61.4465 14.6303 61.7556 14.7648 62.0638 14.7833C62.3721 14.8018 62.6712 14.7672 62.9611 14.6794C63.2579 14.5797 63.5376 14.4541 63.8004 14.3029C64.0632 14.1516 64.2992 14.0327 64.5086 13.9463C64.7274 13.8573 64.913 13.8329 65.0652 13.873C65.215 13.9036 65.3253 14.051 65.396 14.3151C65.4491 14.5132 65.4398 14.6673 65.3683 14.7775C65.3061 14.8851 65.154 14.9967 64.912 15.1121C64.839 15.1417 64.7167 15.1947 64.5451 15.271C64.3804 15.3354 64.1921 15.4061 63.9801 15.4831C63.7682 15.5601 63.5435 15.6456 63.3058 15.7396C63.0656 15.8242 62.8395 15.905 62.6276 15.982C62.4157 16.059 62.2214 16.1262 62.0447 16.1836C61.8655 16.2317 61.7335 16.2671 61.6486 16.2898C61.6612 16.337 61.678 16.4184 61.6989 16.5341C61.7198 16.6498 61.7353 16.7266 61.7454 16.7643C61.8566 17.1794 62.0313 17.5673 62.2695 17.9281C62.5052 18.2794 62.7503 18.6283 63.0049 18.9746C63.2689 19.3184 63.5187 19.6659 63.7544 20.0173C63.9901 20.3686 64.1635 20.7519 64.2747 21.1669C64.295 21.2424 64.307 21.3251 64.3109 21.415C64.3217 21.493 64.3123 21.5713 64.2829 21.65C64.2603 21.7167 64.2104 21.7756 64.1331 21.8266C64.0677 21.8846 63.958 21.9089 63.8038 21.8997C63.4201 21.9014 63.0969 21.7706 62.8343 21.5074C62.5811 21.2416 62.3552 20.9078 62.1565 20.5061C61.9554 20.0949 61.7762 19.6526 61.619 19.1791C61.4618 18.7056 61.2946 18.2702 61.1173 17.8728C60.947 17.4635 60.7566 17.1303 60.5462 16.8733C60.3333 16.6068 60.0717 16.4798 59.7616 16.4921L56.864 16.6012C56.8263 16.6114 56.7596 16.5888 56.6639 16.5335C56.5657 16.4689 56.5021 16.4202 56.4731 16.3875C56.4586 16.3712 56.4476 16.3489 56.44 16.3206C56.4255 16.3042 56.4132 16.2772 56.4031 16.2395ZM72.8219 14.9186C72.7157 14.5224 72.6894 14.0846 72.7429 13.6052C72.8059 13.1233 72.9368 12.6686 73.1357 12.2413C73.3321 11.8045 73.5873 11.4176 73.9014 11.0807C74.225 10.7412 74.599 10.5146 75.0235 10.4009C75.2405 10.3428 75.4675 10.3224 75.7047 10.3397C75.9419 10.357 76.1643 10.4137 76.372 10.5097C76.5892 10.6031 76.7761 10.735 76.933 10.9053C77.0993 11.0731 77.2153 11.2796 77.281 11.5248C77.1112 11.5703 76.9505 11.5932 76.7989 11.5933C76.6567 11.591 76.5133 11.5839 76.3686 11.5722C76.2213 11.5509 76.0766 11.5392 75.9345 11.5368C75.8017 11.5319 75.6599 11.5497 75.509 11.5902C75.1222 11.6938 74.8328 11.8775 74.6406 12.1413C74.4553 12.3932 74.3311 12.6843 74.268 13.0146C74.2048 13.3449 74.1905 13.6875 74.2249 14.0422C74.2662 14.385 74.326 14.7026 74.4043 14.995C74.417 15.0422 74.441 15.1318 74.4764 15.2639C74.5212 15.3934 74.5638 15.5336 74.6043 15.6845C74.6516 15.8235 74.693 15.959 74.7284 16.0911C74.7732 16.2206 74.8066 16.3077 74.8287 16.3523C74.9931 16.5509 75.1389 16.6989 75.2661 16.7962C75.4027 16.8911 75.5365 16.9563 75.6674 16.992C75.7957 17.0183 75.9285 17.0232 76.0656 17.0067C76.2002 16.9807 76.3571 16.9437 76.5363 16.8957C76.7816 16.83 76.9837 16.7354 77.1427 16.6119C77.3111 16.4859 77.4616 16.3495 77.5942 16.2028C77.7267 16.056 77.8473 15.9024 77.956 15.7419C78.0621 15.5719 78.1767 15.4148 78.2998 15.2706C78.4298 15.1144 78.5756 14.9793 78.7371 14.8653C78.9056 14.7393 79.1077 14.6447 79.3435 14.5815C79.4674 15.0437 79.4924 15.4768 79.4187 15.8807C79.3544 16.2821 79.2054 16.6506 78.9718 16.9862C78.7476 17.3192 78.4517 17.6108 78.084 17.861C77.7232 18.0992 77.307 18.2815 76.8353 18.4079C76.392 18.5267 75.9507 18.4832 75.5113 18.2774C75.0814 18.0691 74.681 17.7821 74.3101 17.4164C73.946 17.0388 73.6322 16.6224 73.3687 16.1673C73.1052 15.7121 72.923 15.2959 72.8219 14.9186ZM86.5196 13.8567C86.2269 14.198 85.975 14.5031 85.7639 14.7719C85.5598 15.0288 85.3528 15.2562 85.1429 15.454C84.9331 15.6517 84.6955 15.8216 84.4302 15.9634C84.1743 16.1027 83.8436 16.2267 83.438 16.3354C82.5607 16.5705 81.8479 16.5138 81.2996 16.1653C80.7488 15.8074 80.3495 15.1662 80.1018 14.2418C80.0057 13.8834 79.9531 13.4981 79.9438 13.0861C79.9345 12.6741 79.9689 12.2554 80.047 11.8301C80.132 11.3928 80.2564 10.9702 80.4201 10.5624C80.5812 10.1451 80.7868 9.76147 81.0368 9.41141C81.2867 9.06136 81.5707 8.76284 81.8887 8.51587C82.2136 8.25694 82.5789 8.07313 82.9845 7.96445C83.6813 7.84849 84.2598 7.87548 84.7198 8.0454C85.1774 8.2059 85.562 8.47184 85.8739 8.84324C86.1832 9.20521 86.445 9.63549 86.6595 10.1341C86.8715 10.6232 87.0696 11.1363 87.2539 11.6733C87.4477 12.2078 87.6509 12.7397 87.8635 13.2691C88.0762 13.7985 88.3481 14.2666 88.6795 14.6732C88.6403 15.0173 88.5805 15.2658 88.5002 15.4188C88.4318 15.5787 88.3202 15.6338 88.1654 15.5843C88.0106 15.5348 87.7994 15.369 87.5317 15.0869C87.2734 14.8022 86.9361 14.3922 86.5196 13.8567ZM81.3121 13.9479C81.4561 14.4855 81.6613 14.8552 81.9277 15.0568C82.2009 15.2464 82.5969 15.2718 83.1157 15.1327C83.5025 15.0291 83.8527 14.8645 84.1663 14.6389C84.4868 14.4014 84.7476 14.1293 84.9485 13.8227C85.1469 13.5067 85.2808 13.1574 85.3502 12.7749C85.4195 12.3923 85.3986 11.9935 85.2874 11.5785C85.2419 11.4087 85.1834 11.1716 85.112 10.8672C85.038 10.5534 84.937 10.2519 84.8089 9.96267C84.6809 9.67346 84.5218 9.43807 84.3316 9.25649C84.1389 9.06549 83.9104 9.00537 83.6463 9.07615C83.1558 9.20758 82.7372 9.45624 82.3904 9.82214C82.041 10.1786 81.7672 10.5907 81.569 11.0583C81.3708 11.5259 81.25 12.0183 81.2066 12.5354C81.1606 13.0431 81.1958 13.5139 81.3121 13.9479ZM88.4335 10.1895C88.3678 9.94426 88.3824 9.75332 88.4772 9.6167C88.5695 9.47065 88.7524 9.36097 89.026 9.28768L89.1675 9.24976C89.2362 9.39311 89.316 9.55877 89.4068 9.74675C89.4976 9.93473 89.6085 10.1224 89.7396 10.3097C89.8707 10.497 90.0121 10.6663 90.1639 10.8178C90.3131 10.9597 90.4771 11.0624 90.6559 11.1257C90.5768 10.793 90.5723 10.4556 90.6424 10.1133C90.7193 9.75902 90.8394 9.43365 91.0026 9.13717C91.1727 8.82872 91.3731 8.55767 91.6037 8.32402C91.8411 8.0784 92.0891 7.89064 92.3475 7.76075L92.6588 7.67734C93.1115 7.55602 93.5261 7.55615 93.9024 7.67774C94.2762 7.78989 94.6111 7.98324 94.9071 8.25778C95.21 8.52037 95.4736 8.84402 95.698 9.22874C95.9224 9.61345 96.1211 10.0152 96.2939 10.4339C96.4737 10.8407 96.6226 11.2457 96.7408 11.6487C96.8658 12.0399 96.9662 12.3769 97.042 12.6599L96.0091 12.9367C95.8009 12.3859 95.5848 11.8624 95.3609 11.3664C95.277 11.1664 95.1811 10.9596 95.0733 10.7458C94.9629 10.5226 94.8529 10.3196 94.7433 10.1367C94.6311 9.94431 94.5192 9.77208 94.4077 9.61998C94.2936 9.45845 94.1777 9.32774 94.06 9.22787C94.0121 9.20024 93.9463 9.16226 93.8626 9.11393C93.7883 9.06306 93.7093 9.01346 93.6256 8.96512C93.5419 8.91679 93.4654 8.87662 93.3962 8.84462C93.3269 8.81262 93.2876 8.79788 93.2782 8.80041C92.9749 8.80077 92.7449 8.92309 92.5879 9.16735C92.4284 9.40218 92.3102 9.69672 92.2332 10.051C92.1563 10.4052 92.119 10.7943 92.1214 11.2183C92.1332 11.6398 92.1554 12.0433 92.1879 12.4289C92.2179 12.805 92.2555 13.1337 92.3005 13.4148C92.3429 13.6865 92.367 13.8519 92.3728 13.911C92.1824 14.144 91.9747 14.2553 91.7494 14.2449C91.5217 14.225 91.2832 14.1272 91.0339 13.9513C90.794 13.773 90.5531 13.5342 90.3112 13.2351C90.0787 12.9334 89.8506 12.6103 89.6268 12.2659C89.4006 11.912 89.1838 11.5556 88.9764 11.1966C88.7784 10.8351 88.5975 10.4994 88.4335 10.1895ZM20.1005 52.3592C19.8078 52.7005 19.5559 53.0056 19.3449 53.2744C19.1407 53.5313 18.9337 53.7587 18.7238 53.9564C18.514 54.1542 18.2764 54.324 18.0111 54.4659C17.7552 54.6052 17.4245 54.7292 17.0189 54.8379C16.1416 55.073 15.4288 55.0163 14.8805 54.6678C14.3297 54.3099 13.9304 53.6687 13.6827 52.7443C13.5866 52.3858 13.534 52.0006 13.5247 51.5886C13.5154 51.1766 13.5498 50.7579 13.6279 50.3325C13.7129 49.8952 13.8373 49.4727 14.001 49.0649C14.1622 48.6476 14.3677 48.2639 14.6177 47.9139C14.8676 47.5638 15.1516 47.2653 15.4696 47.0183C15.7945 46.7594 16.1598 46.5756 16.5654 46.4669C17.2622 46.351 17.8407 46.3779 18.3007 46.5479C18.7583 46.7084 19.1429 46.9743 19.4548 47.3457C19.7641 47.7077 20.026 48.138 20.2404 48.6365C20.4524 49.1257 20.6505 49.6388 20.8348 50.1758C21.0286 50.7102 21.2318 51.2422 21.4444 51.7716C21.6571 52.301 21.9291 52.769 22.2604 53.1756C22.2212 53.5198 22.1614 53.7683 22.0811 53.9213C22.0127 54.0811 21.9011 54.1363 21.7463 54.0868C21.5915 54.0373 21.3803 53.8715 21.1126 53.5893C20.8543 53.3047 20.517 52.8946 20.1005 52.3592ZM14.893 52.4503C15.037 52.988 15.2422 53.3576 15.5086 53.5593C15.7818 53.7489 16.1778 53.7742 16.6966 53.6352C17.0834 53.5316 17.4336 53.367 17.7472 53.1414C18.0677 52.9039 18.3285 52.6318 18.5294 52.3252C18.7278 52.0092 18.8617 51.6599 18.9311 51.2773C19.0004 50.8948 18.9795 50.496 18.8683 50.0809C18.8228 49.9111 18.7643 49.6741 18.6929 49.3697C18.6189 49.0559 18.5179 48.7544 18.3898 48.4651C18.2618 48.1759 18.1027 47.9405 17.9125 47.759C17.7198 47.568 17.4913 47.5078 17.2272 47.5786C16.7367 47.71 16.3181 47.9587 15.9713 48.3246C15.6219 48.6811 15.3481 49.0931 15.1499 49.5607C14.9517 50.0284 14.8309 50.5208 14.7875 51.0379C14.7415 51.5456 14.7767 52.0164 14.893 52.4503ZM21.4858 45.3608C21.4125 45.0872 21.3229 44.8282 21.2169 44.5836C21.1084 44.3296 21.037 44.101 21.0028 43.8979C20.9661 43.6853 20.9926 43.5013 21.0824 43.3458C21.1816 43.1878 21.401 43.0633 21.7406 42.9723C21.9025 43.1614 22.09 43.465 22.3031 43.8831C22.5256 44.2986 22.7612 44.7815 23.0097 45.3316C23.2582 45.8817 23.5159 46.485 23.7828 47.1414C24.0471 47.7884 24.3033 48.4426 24.5513 49.1041C24.8087 49.7631 25.0495 50.4164 25.2736 51.064C25.5046 51.6997 25.7063 52.2826 25.8787 52.8127C25.623 53.1037 25.3768 53.1848 25.1401 53.0561C24.9034 52.9274 24.6669 52.6673 24.4305 52.2757C24.1917 51.8746 23.957 51.3764 23.7267 50.7809C23.4939 50.176 23.256 49.5523 23.013 48.9097C22.777 48.2551 22.5306 47.6185 22.2738 46.9998C22.0145 46.3717 21.7518 45.8254 21.4858 45.3608ZM24.6691 46.6006C24.6261 46.4403 24.62 46.2852 24.6506 46.1355C24.6907 45.9832 24.8003 45.883 24.9796 45.835C24.989 45.8325 25.0044 45.8334 25.0258 45.8378C25.0447 45.8327 25.0635 45.8277 25.0824 45.8226C25.1013 45.8176 25.1201 45.8125 25.139 45.8075C25.1723 45.8187 25.2369 45.852 25.3325 45.9072C25.4377 45.96 25.5047 46.0027 25.5337 46.0353C25.5771 46.0844 25.6666 46.1918 25.802 46.3577C25.9469 46.5211 26.1148 46.7137 26.3057 46.9355C26.5034 47.1454 26.7063 47.3741 26.9142 47.6217C27.129 47.8574 27.3318 48.0861 27.5227 48.308C27.723 48.5273 27.8908 48.7199 28.0263 48.8858C28.1686 49.0397 28.2663 49.1399 28.3192 49.1864C28.3362 49.2122 28.3938 49.2574 28.492 49.3221C28.5971 49.3748 28.6711 49.4055 28.7138 49.4143C28.7539 49.262 28.7763 49.0437 28.781 48.7594C28.7857 48.475 28.7841 48.1671 28.7761 47.8356C28.7751 47.4921 28.7728 47.144 28.7692 46.7911C28.7631 46.4287 28.7766 46.1016 28.8096 45.8097C28.8495 45.5058 28.9127 45.2513 28.9992 45.0461C29.0833 44.8315 29.2102 44.7014 29.38 44.6559C29.6252 44.5902 29.8816 44.6226 30.1491 44.7531C30.4261 44.8811 30.704 45.0695 30.983 45.3183C31.2714 45.5645 31.5558 45.8523 31.8361 46.1816C32.1233 46.4989 32.3964 46.8201 32.6553 47.145C32.9212 47.4579 33.1665 47.7511 33.3914 48.0245C33.6233 48.2859 33.8339 48.4872 34.0234 48.6285C34.1265 48.5605 34.1956 48.4409 34.2306 48.2697C34.2656 48.0986 34.2805 47.9278 34.2753 47.7573C34.2769 47.5749 34.2682 47.4104 34.2492 47.2638C34.2276 47.1079 34.2152 47.005 34.212 46.9553C34.1937 46.849 34.1648 46.6849 34.1256 46.4629C34.0838 46.2314 34.0344 45.9717 33.9774 45.6837C33.9299 45.3931 33.8751 45.0943 33.8131 44.7874C33.7511 44.4805 33.6916 44.1831 33.6347 43.895C33.5871 43.6044 33.539 43.3494 33.4903 43.1299C33.4485 42.8985 33.415 42.7356 33.3897 42.6413C33.4086 42.6362 33.4545 42.6189 33.5274 42.5892C33.5978 42.5501 33.6472 42.5268 33.6755 42.5192C33.8075 42.4838 33.9292 42.4664 34.0406 42.4669C34.1519 42.4674 34.2587 42.5449 34.3607 42.6996C34.3784 42.7656 34.41 42.8835 34.4555 43.0533C34.5105 43.2206 34.5645 43.4032 34.6175 43.6013C34.6775 43.7875 34.7315 43.9701 34.7795 44.1494C34.8345 44.3166 34.8708 44.4333 34.8885 44.4993C34.9289 44.6502 34.9921 44.886 35.078 45.2068C35.1709 45.5155 35.2597 45.8658 35.3444 46.2576C35.4386 46.6469 35.5165 47.0506 35.578 47.4689C35.637 47.8777 35.6601 48.2658 35.6474 48.6332C35.6415 48.9886 35.5827 49.2976 35.4711 49.56C35.3569 49.813 35.1724 49.9737 34.9178 50.0419C34.6253 50.1203 34.3328 50.1228 34.0402 50.0496C33.7476 49.9763 33.4565 49.8521 33.167 49.6769C32.8868 49.4993 32.6098 49.2955 32.3359 49.0656C32.0594 48.8262 31.7971 48.5831 31.549 48.3362C31.3077 48.0773 31.081 47.8347 30.8687 47.6085C30.6634 47.3704 30.4835 47.1708 30.3292 47.01C30.2993 47.2 30.2854 47.4312 30.2876 47.7036C30.2992 47.9734 30.3078 48.2694 30.3132 48.5915C30.3161 48.9041 30.3108 49.224 30.2974 49.5511C30.2814 49.8688 30.2449 50.1667 30.188 50.4448C30.138 50.711 30.0531 50.941 29.9331 51.1349C29.8227 51.3263 29.6684 51.4485 29.4703 51.5016C29.3759 51.5268 29.2923 51.5543 29.2194 51.5839C29.1439 51.6042 29.0719 51.6184 29.0033 51.6267C28.9323 51.6255 28.8621 51.6089 28.7929 51.5769C28.7236 51.5449 28.6515 51.4834 28.5766 51.3922L24.7732 46.876C24.7707 46.8666 24.7559 46.8301 24.7287 46.7666C24.6991 46.6937 24.6792 46.6384 24.6691 46.6006ZM42.8243 46.2704C42.5316 46.6117 42.2797 46.9167 42.0686 47.1856C41.8645 47.4425 41.6575 47.6698 41.4476 47.8676C41.2378 48.0654 41.0002 48.2352 40.7349 48.3771C40.479 48.5164 40.1483 48.6404 39.7427 48.7491C38.8654 48.9841 38.1526 48.9274 37.6043 48.579C37.0534 48.2211 36.6542 47.5799 36.4065 46.6555C36.3104 46.297 36.2577 45.9118 36.2484 45.4998C36.2391 45.0877 36.2736 44.6691 36.3517 44.2437C36.4367 43.8064 36.5611 43.3839 36.7248 42.976C36.8859 42.5588 37.0915 42.1751 37.3414 41.8251C37.5914 41.475 37.8754 41.1765 38.1934 40.9295C38.5183 40.6706 38.8835 40.4868 39.2892 40.3781C39.986 40.2621 40.5645 40.2891 41.0245 40.4591C41.482 40.6195 41.8667 40.8855 42.1785 41.2569C42.4878 41.6189 42.7497 42.0491 42.9642 42.5477C43.1762 43.0369 43.3743 43.55 43.5586 44.087C43.7524 44.6214 43.9556 45.1534 44.1682 45.6828C44.3808 46.2122 44.6528 46.6802 44.9842 47.0868C44.945 47.4309 44.8852 47.6795 44.8049 47.8325C44.7365 47.9923 44.6249 48.0475 44.4701 47.998C44.3153 47.9485 44.104 47.7827 43.8364 47.5005C43.5781 47.2159 43.2407 46.8058 42.8243 46.2704ZM37.6167 46.3615C37.7608 46.8992 37.966 47.2688 38.2323 47.4704C38.5056 47.6601 38.9016 47.6854 39.4204 47.5464C39.8072 47.4428 40.1573 47.2782 40.471 47.0526C40.7915 46.815 41.0522 46.543 41.2532 46.2364C41.4516 45.9204 41.5855 45.5711 41.6548 45.1885C41.7242 44.806 41.7033 44.4072 41.5921 43.9921C41.5466 43.8223 41.4881 43.5852 41.4167 43.2809C41.3427 42.967 41.2417 42.6655 41.1136 42.3763C40.9856 42.0871 40.8265 41.8517 40.6363 41.6701C40.4435 41.4791 40.2151 41.419 39.951 41.4898C39.4605 41.6212 39.0418 41.8699 38.695 42.2358C38.3457 42.5923 38.0719 43.0043 37.8737 43.4719C37.6755 43.9396 37.5547 44.4319 37.5113 44.9491C37.4653 45.4568 37.5005 45.9276 37.6167 46.3615ZM43.8153 40.1207C43.7925 40.0358 43.7698 39.9509 43.747 39.8661C43.7312 39.7692 43.7273 39.6792 43.7354 39.5962C43.7503 39.5012 43.7811 39.4272 43.8276 39.3743C43.881 39.3095 43.969 39.2606 44.0916 39.2278C44.101 39.2252 44.1105 39.2227 44.1199 39.2202C44.1388 39.2151 44.1576 39.2101 44.1765 39.205C44.2073 39.2069 44.2322 39.2053 44.251 39.2002C44.496 39.3974 44.7363 39.6717 44.972 40.0231C45.2051 40.365 45.4412 40.7365 45.6801 41.1376C45.9164 41.5292 46.1648 41.9277 46.425 42.3332C46.6828 42.7292 46.9716 43.0713 47.2915 43.3597C47.6114 43.648 47.9643 43.8518 48.35 43.9708C48.7358 44.0899 49.1701 44.0695 49.6531 43.9098C49.87 43.8517 49.9799 43.6959 49.9828 43.4423C49.9856 43.1888 49.9377 42.8781 49.8392 42.5102C49.75 42.1398 49.6319 41.7367 49.4848 41.301C49.3471 40.8627 49.2347 40.4429 49.1474 40.0417C49.067 39.6285 49.043 39.2558 49.0753 38.9236C49.117 38.5889 49.2702 38.3305 49.5348 38.1484C49.7232 38.3608 49.9258 38.721 50.1428 39.229C50.3668 39.7251 50.5898 40.3124 50.8121 40.9908C51.0318 41.6599 51.2491 42.3953 51.4639 43.1971C51.6762 43.9895 51.8697 44.7869 52.0442 45.5894C52.2163 46.3824 52.3619 47.1522 52.4811 47.8988C52.6002 48.6453 52.6859 49.3048 52.7382 49.8772C52.7905 50.4495 52.7923 50.9091 52.7436 51.2557C52.7069 51.6093 52.6115 51.7815 52.4574 51.7722C52.2087 51.6366 51.9874 51.4331 51.7933 51.1616C51.6087 50.8875 51.4435 50.5729 51.2977 50.2176C51.1614 49.8599 51.0424 49.4722 50.9406 49.0546C50.8414 48.6465 50.7456 48.2323 50.6532 47.8122C50.5703 47.3896 50.4899 46.9764 50.4121 46.5727C50.3436 46.1664 50.2652 45.7981 50.1767 45.468C49.8447 45.5873 49.4818 45.6289 49.088 45.5929C48.7036 45.5544 48.3049 45.4438 47.8921 45.2613C47.4766 45.0693 47.0602 44.8169 46.6428 44.5041C46.2348 44.1888 45.8459 43.8128 45.4761 43.376C45.1157 42.9367 44.7925 42.4471 44.5062 41.9071C44.2174 41.3576 43.9871 40.7622 43.8153 40.1207ZM55.5376 44.1377C55.6607 43.9935 55.8045 43.8134 55.9691 43.5975C56.1405 43.3695 56.3095 43.1322 56.4759 42.8854C56.6423 42.6386 56.792 42.3862 56.9251 42.1281C57.0581 41.87 57.1512 41.6328 57.2045 41.4163C57.2646 41.1879 57.2719 40.9888 57.2264 40.819C57.1809 40.6492 57.0581 40.5304 56.858 40.4627C56.5561 40.5436 56.2297 40.6462 55.8789 40.7706C55.5255 40.8855 55.1696 40.991 54.8111 41.087C54.4501 41.1736 54.0923 41.2341 53.7375 41.2685C53.3922 41.3004 53.0673 41.2763 52.7627 41.1961C52.4582 41.1159 52.189 40.9606 51.9554 40.73C51.7286 40.4874 51.5571 40.1492 51.4409 39.7153C51.3044 39.2059 51.2761 38.7232 51.3561 38.267C51.443 37.7989 51.6051 37.3662 51.8424 36.969C52.0772 36.5623 52.361 36.188 52.694 35.846C53.0339 35.4921 53.3839 35.1759 53.7441 34.8974C54.007 34.8977 54.265 34.955 54.518 35.0692C54.771 35.1833 55.0008 35.324 55.2073 35.4911C55.1969 35.7163 55.1078 35.912 54.9401 36.0783C54.7817 36.242 54.5866 36.4005 54.3547 36.5536C54.1321 36.7042 53.8968 36.8634 53.6485 37.031C53.4002 37.1986 53.1843 37.3929 53.0009 37.6139C52.8244 37.823 52.6948 38.0751 52.6121 38.3702C52.5269 38.6559 52.5387 39.0016 52.6473 39.4072C52.7282 39.709 52.8631 39.9105 53.0519 40.0115C53.2408 40.1126 53.4654 40.1586 53.7258 40.1494C53.9837 40.1309 54.267 40.0752 54.5758 39.9824C54.882 39.8801 55.1917 39.7718 55.5048 39.6576C55.8274 39.5408 56.1443 39.4407 56.4556 39.3573C56.7644 39.2645 57.0527 39.2277 57.3207 39.2468C57.5862 39.2566 57.8137 39.3321 58.0032 39.4734C58.2022 39.6122 58.3484 39.8561 58.4419 40.2051C58.4824 40.3561 58.4823 40.5633 58.4417 40.827C58.4106 41.0881 58.3468 41.3781 58.2503 41.6972C58.1607 42.0043 58.0381 42.3202 57.8825 42.645C57.7363 42.9672 57.5696 43.2697 57.3825 43.5524C57.2023 43.8231 57.0085 44.062 56.8012 44.2693C56.6007 44.4645 56.3968 44.5899 56.1892 44.6455C55.9912 44.6986 55.8401 44.6633 55.7362 44.5395C55.6417 44.4131 55.5755 44.2792 55.5376 44.1377ZM64.4359 32.5785C64.4081 32.4747 64.3834 32.3448 64.3619 32.1889C64.3472 32.0209 64.3492 31.8586 64.3679 31.702C64.396 31.5428 64.4446 31.4034 64.5136 31.2838C64.5802 31.1547 64.6889 31.07 64.8398 31.0296C64.8492 31.027 64.8741 31.0254 64.9143 31.0248C64.9546 31.0241 64.9795 31.0225 64.9889 31.0199C65.306 31.5618 65.5557 32.1167 65.7382 32.6845C65.9207 33.2523 66.0616 33.8161 66.1611 34.3758C66.258 34.9261 66.3275 35.4686 66.3697 36.0033C66.4093 36.5285 66.453 37.0122 66.5007 37.4544C66.5578 37.894 66.6224 38.2861 66.6946 38.6308C66.7761 38.9729 66.9051 39.2467 67.0815 39.4522C67.0222 39.3063 66.96 39.1309 66.895 38.9259C66.8368 38.7089 66.7963 38.4822 66.7734 38.2457C66.7599 38.0067 66.77 37.7613 66.8036 37.5097C66.8467 37.2555 66.9386 37.0135 67.0792 36.7837C67.2199 36.5539 67.4225 36.348 67.6871 36.1659C67.9612 35.9812 68.3199 35.8295 68.7632 35.7107C69.2254 35.5869 69.6431 35.5609 70.0162 35.6328C70.3987 35.7022 70.7364 35.8493 71.0292 36.0741C71.3194 36.2896 71.567 36.572 71.7719 36.9215C71.9836 37.2591 72.1464 37.6401 72.2601 38.0646C72.3132 38.2627 72.3691 38.4903 72.428 38.7475C72.4937 38.9928 72.5226 39.2327 72.5147 39.4674C72.5137 39.6901 72.4532 39.8984 72.3333 40.0923C72.2203 40.2742 72.0129 40.4056 71.711 40.4865C71.6706 40.3356 71.6257 40.1302 71.5763 39.8705C71.5244 39.6013 71.4593 39.3205 71.3809 39.0281C71.312 38.7331 71.2229 38.4385 71.1138 38.1443C71.014 37.8475 70.8807 37.5951 70.7137 37.387C70.5442 37.1696 70.345 37.0107 70.1159 36.9103C69.8937 36.798 69.6222 36.7848 69.3015 36.8707C69.1883 36.901 69.0493 36.9484 68.8846 37.0127C68.7268 37.0651 68.5731 37.1518 68.4235 37.2728C68.2739 37.3937 68.1404 37.5559 68.023 37.7592C67.9031 37.9531 67.8327 38.1995 67.8116 38.4983C67.7881 38.7877 67.8225 39.1424 67.9148 39.5625C68.0141 39.9707 68.1999 40.4567 68.4723 41.0207C68.4518 41.2081 68.3934 41.3299 68.2973 41.386C68.2105 41.4396 68.0917 41.4866 67.9407 41.5271C67.6389 41.6079 67.3611 41.5712 67.1074 41.4167C66.8606 41.2503 66.6373 41.0018 66.4375 40.6711C66.2377 40.3405 66.0558 39.9444 65.8917 39.4829C65.737 39.0188 65.5961 38.5308 65.4691 38.0189C65.3395 37.4976 65.2228 36.9677 65.119 36.4294C65.0221 35.8791 64.9293 35.363 64.8406 34.8813C64.7589 34.3876 64.6851 33.9423 64.6192 33.5454C64.5602 33.1366 64.4991 32.8143 64.4359 32.5785ZM72.6252 37.163C72.4685 36.5782 72.4599 35.9991 72.5995 35.4259C72.7366 34.8432 72.9787 34.3133 73.326 33.836C73.6802 33.3468 74.1078 32.9239 74.6087 32.5672C75.1191 32.2081 75.662 31.9514 76.2374 31.7972C76.5581 31.7113 76.8689 31.7392 77.1698 31.881C77.4801 32.0203 77.7605 32.2181 78.0112 32.4745C78.2594 32.7214 78.4701 32.9986 78.6435 33.306C78.8263 33.6108 78.9505 33.8859 79.0162 34.1312C79.1578 34.6594 79.1682 35.2076 79.0475 35.7758C78.9242 36.3345 78.7116 36.8616 78.4096 37.3571C78.1051 37.8431 77.7297 38.2722 77.2835 38.6445C76.8374 39.0168 76.3596 39.2712 75.8502 39.4077C75.3974 39.529 74.9952 39.5559 74.6435 39.4884C74.2892 39.4115 73.9836 39.2709 73.7267 39.0668C73.4673 38.8532 73.2437 38.5846 73.0558 38.2608C72.8749 37.9251 72.7313 37.5592 72.6252 37.163ZM73.8658 36.9822C73.9315 37.2275 74.0085 37.4394 74.0968 37.6179C74.1919 37.7845 74.3091 37.92 74.4483 38.0242C74.5968 38.1259 74.7709 38.1905 74.9703 38.218C75.1672 38.236 75.3977 38.2096 75.6619 38.1388C76.0109 38.0453 76.3346 37.8575 76.6331 37.5753C76.929 37.2837 77.1746 36.955 77.3698 36.5893C77.5719 36.2116 77.7098 35.8208 77.7836 35.4169C77.8573 35.0129 77.8487 34.6411 77.7577 34.3016C77.7173 34.1506 77.6589 33.9894 77.5826 33.8177C77.5062 33.6461 77.4148 33.4936 77.3084 33.3604C77.2019 33.2272 77.0734 33.1251 76.923 33.0542C76.7726 32.9833 76.603 32.9731 76.4144 33.0237C76.2446 33.0692 76.0569 33.1801 75.8515 33.3565C75.6554 33.5303 75.454 33.741 75.2474 33.9885C75.0501 34.2334 74.8592 34.5019 74.6746 34.794C74.4995 35.0836 74.3432 35.3681 74.2057 35.6476C74.0683 35.9271 73.9661 36.187 73.8991 36.4274C73.8415 36.6652 73.8304 36.8502 73.8658 36.9822ZM79.2685 32.8655C79.0234 31.9505 79.0536 31.2145 79.3593 30.6574C79.665 30.1003 80.2565 29.7042 81.1337 29.4692C81.4922 29.3731 81.8689 29.3076 82.2639 29.2725C82.6684 29.2349 83.0537 29.258 83.4199 29.3419C83.7836 29.4163 84.1036 29.5732 84.3801 29.8125C84.666 30.0493 84.8708 30.3989 84.9947 30.8611C85.1312 31.3704 85.1469 31.8819 85.0418 32.3953C84.9436 32.8968 84.7779 33.3911 84.5444 33.8783C84.3179 34.3535 84.0473 34.8152 83.7327 35.2635C83.425 35.6998 83.1371 36.1156 82.8689 36.511C82.8602 36.5538 82.8628 36.639 82.8768 36.7667C82.8977 36.8824 82.9132 36.9591 82.9233 36.9969C83.0067 37.3082 83.1797 37.5954 83.4424 37.8587C83.717 38.1289 84.0057 38.3952 84.3086 38.6578C84.614 38.9298 84.9031 39.2163 85.1758 39.5173C85.4486 39.8183 85.6355 40.1575 85.7366 40.5348C85.7973 40.7612 85.7855 40.9059 85.7013 40.9689C85.6196 41.0413 85.4278 41.118 85.1259 41.1989C84.9171 41.174 84.6804 41.0453 84.4159 40.8129C84.1634 40.5873 83.8885 40.297 83.5911 39.942C83.3032 39.5844 83.0014 39.1749 82.6857 38.7136C82.3819 38.2591 82.0804 37.794 81.781 37.3181C81.4885 36.8303 81.2033 36.3507 80.9253 35.8792C80.6543 35.3958 80.4087 34.951 80.1887 34.5449C79.9686 34.1388 79.7745 33.7915 79.6062 33.503C79.4448 33.2025 79.3322 32.99 79.2685 32.8655ZM80.5054 32.6706C80.5433 32.8121 80.6083 33.0171 80.7005 33.2856C80.7901 33.5446 80.8986 33.7986 81.026 34.0476C81.1628 34.294 81.319 34.4999 81.4947 34.6651C81.6679 34.8209 81.863 34.8697 82.0799 34.8116C82.3724 34.7332 82.6382 34.5558 82.8776 34.2794C83.1264 34.0004 83.3235 33.6797 83.469 33.3172C83.6239 32.9521 83.7267 32.5809 83.7772 32.2034C83.8346 31.8139 83.8254 31.4777 83.7495 31.1947C83.6864 30.9589 83.5805 30.7901 83.4319 30.6884C83.2808 30.5772 83.1055 30.5079 82.9061 30.4805C82.7135 30.4411 82.5157 30.4385 82.3125 30.4727C82.1069 30.4975 81.9144 30.5339 81.7352 30.5819C81.1975 30.726 80.8216 30.9834 80.6076 31.3542C80.4004 31.713 80.3663 32.1518 80.5054 32.6706ZM86.292 32.3636C86.1555 31.8542 86.0804 31.3284 86.0665 30.7862C86.0526 30.244 86.1234 29.7346 86.2789 29.2583C86.4437 28.7793 86.7043 28.3557 87.0605 27.9873C87.4262 27.6163 87.9156 27.3487 88.5287 27.1844C88.8778 27.0909 89.202 27.0748 89.5015 27.136C89.7985 27.1879 90.0644 27.2936 90.2992 27.4531C90.5341 27.6126 90.7318 27.8224 90.8926 28.0827C91.0602 28.331 91.1844 28.606 91.2653 28.9079C91.3942 29.389 91.4061 29.8862 91.3011 30.3997C91.2054 30.9106 91.0157 31.3911 90.7319 31.8412C90.455 32.2794 90.1001 32.6525 89.667 32.9606C89.2314 33.2593 88.751 33.4285 88.2258 33.4681C88.3086 33.7391 88.4576 33.9368 88.6728 34.0611C88.895 34.1734 89.1401 34.2392 89.4081 34.2584C89.6761 34.2775 89.946 34.2659 90.2177 34.2234C90.4869 34.1715 90.7252 34.1178 90.9327 34.0622C91.1497 34.004 91.3475 33.9308 91.526 33.8425C91.7045 33.7543 91.8818 33.6613 92.0579 33.5635C92.2339 33.4658 92.4112 33.3728 92.5897 33.2846C92.7777 33.1937 92.9802 33.1193 93.1971 33.0611C93.282 33.0384 93.3682 33.0204 93.4556 33.007C93.543 32.9937 93.6295 32.9958 93.7151 33.0133C93.7981 33.0214 93.8733 33.0569 93.9407 33.1197C94.0056 33.1731 94.0519 33.2517 94.0797 33.3554C94.1277 33.5346 94.1021 33.7033 94.0029 33.8613C93.9012 34.0099 93.758 34.1544 93.5732 34.2949C93.3978 34.4329 93.1939 34.5583 92.9612 34.6712C92.7261 34.7746 92.4944 34.8721 92.2662 34.9636C92.0448 35.0431 91.8351 35.1094 91.637 35.1625C91.4509 35.2225 91.3107 35.2651 91.2164 35.2904C90.6126 35.4521 90.045 35.5031 89.5134 35.4434C88.9792 35.3742 88.5016 35.2141 88.0804 34.9629C87.6567 34.7024 87.2908 34.3556 86.9827 33.9225C86.6815 33.4775 86.4513 32.9579 86.292 32.3636ZM87.5454 31.042C87.6339 31.3722 87.7408 31.6013 87.8661 31.7295C88.0009 31.8552 88.2428 31.8712 88.5918 31.7777C88.8371 31.712 89.0662 31.6051 89.2793 31.457C89.4898 31.2995 89.668 31.1153 89.8136 30.9044C89.9688 30.6909 90.0739 30.4606 90.1289 30.2133C90.184 29.966 90.1774 29.715 90.1091 29.4603C90.0712 29.3188 90.0179 29.1764 89.9492 29.0331C89.8899 28.8872 89.806 28.7631 89.6977 28.6607C89.5869 28.5488 89.46 28.4716 89.3172 28.429C89.1812 28.3744 89.0189 28.3724 88.8303 28.423C88.5473 28.4988 88.3056 28.6343 88.1052 28.8296C87.9116 29.0129 87.7625 29.2297 87.6577 29.4802C87.5504 29.7213 87.4885 29.9805 87.4718 30.258C87.4526 30.526 87.4772 30.7873 87.5454 31.042ZM96.001 32.6586C96.1236 32.6258 96.2516 32.6319 96.385 32.6771C96.5279 32.7197 96.6286 32.7938 96.6873 32.8994C96.7528 32.993 96.7561 33.1185 96.6971 33.2759C96.6382 33.4332 96.4682 33.6102 96.1873 33.8068C95.9225 33.8373 95.7221 33.8253 95.5862 33.7707C95.4571 33.7042 95.3706 33.6263 95.3264 33.537C95.2892 33.4358 95.2862 33.3304 95.3175 33.2209C95.3558 33.0994 95.4085 32.9943 95.4757 32.9055C95.5498 32.8048 95.6362 32.7311 95.7349 32.6844C95.8311 32.6283 95.9198 32.6197 96.001 32.6586ZM92.4224 23.5479C92.6139 23.2438 92.798 23.1388 92.9749 23.233C93.1518 23.3271 93.3225 23.5493 93.4871 23.8995C93.6612 24.2471 93.8224 24.6791 93.9709 25.1954C94.1168 25.7022 94.2618 26.2245 94.4059 26.7622C94.5594 27.2973 94.7053 27.8042 94.8436 28.2827C94.9914 28.7587 95.1362 29.1294 95.2781 29.3947C95.316 29.5362 95.3394 29.6613 95.3483 29.7702C95.3573 29.879 95.347 29.9727 95.3175 30.0514C95.2881 30.13 95.2265 30.2021 95.1328 30.2677C95.0367 30.3238 94.9037 30.3746 94.7339 30.4201C94.7056 30.4277 94.6735 30.4211 94.6376 30.4004C94.6017 30.3797 94.5519 30.3071 94.4883 30.1826C94.4221 30.0487 94.3369 29.844 94.2328 29.5686C94.1261 29.2838 93.9891 28.8857 93.8218 28.3745C93.6639 27.8608 93.466 27.2162 93.2279 26.4409C92.9992 25.663 92.7307 24.6987 92.4224 23.5479Z" fill="#FFB100"/>
</svg>
