<svg width="896" height="514" viewBox="0 0 896 514" fill="none" xmlns="http://www.w3.org/2000/svg">
<path d="M79.9497 5.74284H8.13076C-4.18209 5.74284 2.25388 32.4741 2.46998 43.0928L4.4377 139.781C4.77841 156.523 2.18732 172.246 1.27519 188.878C-1.1744 233.545 0.843865 278.695 1.75607 323.519C2.40921 355.612 5.33521 385.792 9.61388 417.496C14.2198 451.624 1.99134 490.711 28.1732 511.473C37.156 518.596 50.7695 508.034 60.8845 511.473C67.2328 513.631 77.0083 509.247 83.3318 511.473C94.1528 515.283 99.5887 513.821 109.988 511.473C164.703 511.473 219.653 504.953 272.731 511.473C302.453 515.124 335.725 505.91 365.326 511.473C389.505 516.017 412.601 511.473 436.877 511.473C468.039 511.473 498.56 516.069 529.472 511.473C555.694 507.575 581.923 512.208 607.952 507.256C630.203 503.024 650.276 512.303 672.488 507.256C688.827 503.544 707.088 507.256 723.684 507.256C770.867 507.256 819.023 510.546 865.984 505.75C888.427 503.458 892.561 501.546 894.709 474.123C895.883 459.149 894.328 443.707 894.26 428.641C894.174 409.789 890.425 392.681 892.68 374.379C895.886 348.356 892.141 324.528 891.6 297.969C891.016 269.251 890.352 239.3 887.688 210.897C883.629 167.623 885.982 127.054 885.094 83.4548C884.717 64.9282 885.332 46.9322 885.997 28.4841C886.142 24.463 886.822 17.6265 885.343 13.8755C880.147 0.699386 850.489 0.321076 841.75 0.321076C818.847 0.321076 805.811 0.71969 782.826 0.321025C756.301 -0.139023 726.45 -0.0737675 699.337 0.321076C605.136 1.69291 506.778 2.89964 412.555 5.74284C375.905 6.84878 347.994 2.98681 311.542 5.74284C285.501 7.71177 257.681 5.74284 231.574 5.74284C206.297 5.74284 182.151 12.3108 157.217 5.74284C132.566 -0.750576 105.122 5.74284 79.9497 5.74284Z" fill="#F3F3F1"/>
</svg>
