<svg width="468" height="524" viewBox="0 0 468 524" fill="none" xmlns="http://www.w3.org/2000/svg">
<path d="M414.852 13.7428H450.762C456.918 13.7428 453.428 40.4741 453.212 51.0928L451.244 147.781C450.904 164.523 452.039 180.246 452.326 196.878C453.096 241.545 451.628 286.695 450.715 331.519C450.062 363.612 448.292 393.792 445.83 425.496C443.18 459.624 448.897 498.711 435.594 519.473C431.031 526.596 424.331 516.034 419.239 519.473C416.043 521.631 411.2 517.247 408.015 519.473C402.566 523.283 399.863 521.821 394.687 519.473C367.33 519.473 339.921 512.953 313.316 519.473C298.418 523.124 281.876 513.91 267.019 519.473C254.883 524.017 243.381 519.473 231.243 519.473C215.662 519.473 200.355 524.069 184.946 519.473C171.875 515.575 158.713 520.208 145.749 515.256C134.667 511.024 124.536 520.303 113.481 515.256C105.349 511.544 96.1815 515.256 87.8832 515.256C64.2922 515.256 40.1809 518.546 16.7493 513.75C5.55084 511.458 3.50327 509.546 2.70818 482.123C2.27402 467.149 3.20832 451.707 3.39598 436.641C3.6308 417.789 5.67922 400.681 4.73808 382.379C3.39991 356.356 5.51478 332.528 6.05528 305.969C6.63973 277.251 7.27643 247.3 8.89742 218.897C11.3673 175.623 10.6037 135.054 11.491 91.4548C11.8681 72.9282 11.7438 54.9322 11.5991 36.4841C11.5675 32.463 11.297 25.6265 12.0747 21.8755C14.8067 8.69939 29.6395 8.32108 34.0091 8.32108C45.4606 8.32108 51.9745 8.71969 63.4711 8.32103C76.7378 7.86098 91.6629 7.92623 105.215 8.32108C152.302 9.69291 201.468 10.8996 248.55 13.7428C266.864 14.8488 280.859 10.9868 299.057 13.7428C312.057 15.7118 325.987 13.7428 339.041 13.7428C351.679 13.7428 363.685 20.3108 376.219 13.7428C388.61 7.24942 402.266 13.7428 414.852 13.7428Z" fill="white" stroke="#00A7B7" stroke-width="4" stroke-linecap="round"/>
<path d="M424.852 6.74284H460.762C466.918 6.74284 463.428 33.4741 463.212 44.0928L461.244 140.781C460.904 157.523 462.039 173.246 462.326 189.878C463.096 234.545 461.628 279.695 460.715 324.519C460.062 356.612 458.292 386.792 455.83 418.496C453.18 452.624 458.897 491.711 445.594 512.473C441.031 519.596 434.331 509.034 429.239 512.473C426.043 514.631 421.2 510.247 418.015 512.473C412.566 516.283 409.863 514.821 404.687 512.473C377.33 512.473 349.921 505.953 323.316 512.473C308.418 516.124 291.876 506.91 277.019 512.473C264.883 517.017 253.381 512.473 241.243 512.473C225.662 512.473 210.355 517.069 194.946 512.473C181.875 508.575 168.713 513.208 155.749 508.256C144.667 504.024 134.536 513.303 123.481 508.256C115.349 504.544 106.182 508.256 97.8832 508.256C74.2922 508.256 50.1809 511.546 26.7493 506.75C15.5508 504.458 13.5033 502.546 12.7082 475.123C12.274 460.149 13.2083 444.707 13.396 429.641C13.6308 410.789 15.6792 393.681 14.7381 375.379C13.3999 349.356 15.5148 325.528 16.0553 298.969C16.6397 270.251 17.2764 240.3 18.8974 211.897C21.3673 168.623 20.6037 128.054 21.491 84.4548C21.8681 65.9282 21.7438 47.9322 21.5991 29.4841C21.5675 25.463 21.297 18.6265 22.0747 14.8755C24.8067 1.69939 39.6395 1.32108 44.0091 1.32108C55.4606 1.32108 61.9745 1.71969 73.4711 1.32103C86.7378 0.860977 101.663 0.926232 115.215 1.32108C162.302 2.69291 211.468 3.89964 258.55 6.74284C276.864 7.84878 290.859 3.98681 309.057 6.74284C322.057 8.71177 335.987 6.74284 349.041 6.74284C361.679 6.74284 373.685 13.3108 386.219 6.74284C398.61 0.249424 412.266 6.74284 424.852 6.74284Z" stroke="#00A7B7" stroke-width="2" stroke-linecap="round"/>
<path d="M173.412 206.174C173.412 206.174 165.099 197.608 157.905 195.863C148.347 193.544 141.48 206.941 142.097 213.572C142.714 220.204 149.191 220.82 153.355 220.204C157.519 219.587 160.68 214.475 159.215 208.714C157.75 202.954 147.944 192.126 134.269 193.223C120.594 194.32 113.993 201.774 119.324 209.433C121.276 212.237 123.819 213.662 126.475 214.475C129.13 215.287 134.626 213.821 134.178 208.241C133.731 202.662 122.283 193.312 112.496 194.97C103.731 196.454 95.5024 203.135 96.0533 210.003C96.6041 216.87 103.093 216.35 104.487 216.238C105.882 216.126 109.646 215.284 109.992 210.181C110.339 205.078 106.411 189.086 85.4395 193.414" stroke="#00A7B7" stroke-width="2.67207" stroke-linecap="round"/>
<path d="M293.457 378.828C295.515 378.828 292.007 353.508 300.778 356.367C309.118 359.085 297.457 378.828 299.416 378.828C301.376 378.828 315.072 377.691 315.983 383.881C317.002 390.795 299.06 386.925 298.526 387.812C297.991 388.699 305.57 399.199 300.778 402.411C295.814 405.739 289.475 393.427 288.389 393.427C287.303 393.427 281.689 413.597 277.126 408.027C273.418 403.499 282.258 393.427 280.505 393.427C278.753 393.427 265.677 394.45 263.611 387.812C261.086 379.699 283.651 385.492 285.01 383.881C286.369 382.27 274.133 369.339 280.505 365.913C286.796 362.53 291.4 378.828 293.457 378.828Z" stroke="#00A7B7" stroke-width="2.67207" stroke-linecap="round"/>
<path d="M238.709 154.311C233.44 150.766 219.561 151.512 214.292 155.057C208.711 158.813 209.48 166.63 214.292 170.892C220.271 176.186 232.267 176.013 238.709 170.892C242.634 167.771 242.394 163.425 238.709 160.159C234.127 156.099 224.196 155.592 219.11 159.335C215.696 161.846 216.28 165.719 219.99 167.615C226.404 170.892 233.341 166.202 233.341 166.202" stroke="#00A7B7" stroke-width="2.67207" stroke-linecap="round"/>
<path d="M207.628 306.301C196.961 300.999 185.551 321.378 185.551 321.378C185.551 321.378 171.864 301.232 162.604 306.301C153.343 311.37 182.658 344.657 185.551 342.751C197.199 335.082 217.206 311.062 207.628 306.301Z" stroke="#00A7B7" stroke-width="2.67207" stroke-linecap="round"/>
<path d="M213.268 250.376C213.268 250.376 215.762 261.955 213.268 280.303" stroke="#00A7B7" stroke-width="2.85021" stroke-linecap="round"/>
<path d="M223.6 266.497C216.118 264.894 206.944 266.497 206.944 266.497" stroke="#00A7B7" stroke-width="2.85021" stroke-linecap="round"/>
<path d="M220.136 276.132C213.98 260.886 199.551 248.594 199.551 248.594" stroke="#00A7B7" stroke-width="2.85021" stroke-linecap="round"/>
<path d="M225.203 254.206C218.879 263.736 201.135 278.757 201.135 278.757" stroke="#00A7B7" stroke-width="2.85021" stroke-linecap="round"/>
<path d="M271.312 199.202C272.025 201.221 275.623 205.259 284.317 205.259" stroke="#00A7B7" stroke-width="2.67207" stroke-linecap="round"/>
<path d="M271.312 231.802C270.6 224.914 267.002 211.138 258.308 211.138" stroke="#00A7B7" stroke-width="2.67207" stroke-linecap="round"/>
<path d="M271.312 199.024C270.6 203.062 267.002 211.138 258.308 211.138" stroke="#00A7B7" stroke-width="2.67207" stroke-linecap="round"/>
<path d="M271.312 231.802C272.025 222.954 275.623 205.259 284.317 205.259" stroke="#00A7B7" stroke-width="2.67207" stroke-linecap="round"/>
<path d="M367.562 289.758C358.849 286.488 348.186 284.83 339.652 289.57C337.49 290.771 335.633 292.594 334.253 294.74M334.253 294.74C332.152 298.008 331.158 302.025 331.883 305.732C333.017 311.532 336.604 316.926 342.844 317.492C346.097 317.788 349.065 316.617 350.049 313.27C351.552 308.155 346.967 302.155 343.09 299.408C340.409 297.509 337.422 295.947 334.253 294.74ZM267.185 292.084C275.75 288.443 286.331 286.329 295.061 290.698C297.273 291.805 299.206 293.546 300.677 295.631M300.677 295.631C302.917 298.805 304.083 302.776 303.518 306.511C302.634 312.354 299.282 317.897 293.072 318.731C289.835 319.166 286.819 318.124 285.693 314.822C283.971 309.777 288.293 303.585 292.05 300.675C294.647 298.662 297.563 296.973 300.677 295.631ZM300.677 295.631C311.619 290.913 323.83 289.851 334.364 294.701" stroke="#00A7B7" stroke-width="2.67207" stroke-linecap="round"/>
<path d="M272.195 282.812C270.502 284.835 266.77 289.609 265.381 292.525" stroke="#00A7B7" stroke-width="2.67207" stroke-linecap="round"/>
<path d="M265.381 292.525C267.811 293.55 273.312 296.09 275.881 298.049" stroke="#00A7B7" stroke-width="2.67207" stroke-linecap="round"/>
<path d="M303.021 125.151C301.908 124.451 299.3 122.928 297.773 122.44" stroke="#00A7B7" stroke-width="2.67207" stroke-linecap="round"/>
<path d="M297.427 122.58C296.949 123.922 295.738 126.983 294.718 128.497" stroke="#00A7B7" stroke-width="2.67207" stroke-linecap="round"/>
<path d="M338.827 179.877C338.827 179.877 324.925 141.932 320.297 140.507C315.669 139.082 327.063 172.394 320.297 172.661C313.531 172.928 298.181 124.287 298.181 124.287" stroke="#00A7B7" stroke-width="2.67207" stroke-linecap="round"/>
</svg>
