<svg width="467" height="524" viewBox="0 0 467 524" fill="none" xmlns="http://www.w3.org/2000/svg">
<path d="M52.5331 13.7428H16.6238C10.4674 13.7428 13.9574 40.4741 14.1735 51.0928L16.1412 147.781C16.4819 164.523 15.3463 180.246 15.0595 196.878C14.2893 241.545 15.7578 286.695 16.67 331.519C17.3232 363.612 19.0933 393.792 21.5552 425.496C24.2054 459.624 18.4889 498.711 31.7911 519.473C36.355 526.596 43.0542 516.034 48.1466 519.473C51.3427 521.631 56.1859 517.247 59.3703 519.473C64.8195 523.283 67.5226 521.821 72.6983 519.473C100.056 519.473 127.464 512.953 154.069 519.473C168.967 523.124 185.51 513.91 200.367 519.473C212.502 524.017 224.004 519.473 236.142 519.473C251.723 519.473 267.03 524.069 282.44 519.473C295.51 515.575 308.672 520.208 321.636 515.256C332.718 511.024 342.85 520.303 353.904 515.256C362.036 511.544 371.204 515.256 379.502 515.256C403.093 515.256 427.205 518.546 450.636 513.75C461.835 511.458 463.882 509.546 464.677 482.123C465.111 467.149 464.177 451.707 463.989 436.641C463.755 417.789 461.706 400.681 462.647 382.379C463.986 356.356 461.871 332.528 461.33 305.969C460.746 277.251 460.109 247.3 458.488 218.897C456.018 175.623 456.782 135.054 455.894 91.4548C455.517 72.9282 455.642 54.9322 455.786 36.4841C455.818 32.463 456.088 25.6265 455.311 21.8755C452.579 8.69939 437.746 8.32108 433.376 8.32108C421.925 8.32108 415.411 8.71969 403.914 8.32103C390.648 7.86098 375.723 7.92623 362.17 8.32108C315.084 9.69291 265.917 10.8996 218.835 13.7428C200.521 14.8488 186.527 10.9868 168.329 13.7428C155.328 15.7118 141.398 13.7428 128.345 13.7428C115.707 13.7428 103.7 20.3108 91.1666 13.7428C78.7751 7.24942 65.1192 13.7428 52.5331 13.7428Z" fill="white" stroke="#6667AB" stroke-width="4" stroke-linecap="round"/>
<path d="M42.5331 6.74284H6.62379C0.467392 6.74284 3.95737 33.4741 4.17347 44.0928L6.14118 140.781C6.4819 157.523 5.34635 173.246 5.05953 189.878C4.28925 234.545 5.75781 279.695 6.67002 324.519C7.32316 356.612 9.09325 386.792 11.5552 418.496C14.2054 452.624 8.48893 491.711 21.7911 512.473C26.355 519.596 33.0542 509.034 38.1466 512.473C41.3427 514.631 46.1859 510.247 49.3703 512.473C54.8195 516.283 57.5226 514.821 62.6983 512.473C90.0559 512.473 117.464 505.953 144.069 512.473C158.967 516.124 175.51 506.91 190.367 512.473C202.502 517.017 214.004 512.473 226.142 512.473C241.723 512.473 257.03 517.069 272.44 512.473C285.51 508.575 298.672 513.208 311.636 508.256C322.718 504.024 332.85 513.303 343.904 508.256C352.036 504.544 361.204 508.256 369.502 508.256C393.093 508.256 417.205 511.546 440.636 506.75C451.835 504.458 453.882 502.546 454.677 475.123C455.111 460.149 454.177 444.707 453.989 429.641C453.755 410.789 451.706 393.681 452.647 375.379C453.986 349.356 451.871 325.528 451.33 298.969C450.746 270.251 450.109 240.3 448.488 211.897C446.018 168.623 446.782 128.054 445.894 84.4548C445.517 65.9282 445.642 47.9322 445.786 29.4841C445.818 25.463 446.088 18.6265 445.311 14.8755C442.579 1.69939 427.746 1.32108 423.376 1.32108C411.925 1.32108 405.411 1.71969 393.914 1.32103C380.648 0.860977 365.723 0.926232 352.17 1.32108C305.084 2.69291 255.917 3.89964 208.835 6.74284C190.521 7.84878 176.527 3.98681 158.329 6.74284C145.328 8.71177 131.398 6.74284 118.345 6.74284C105.707 6.74284 93.7004 13.3108 81.1666 6.74284C68.7751 0.249424 55.1192 6.74284 42.5331 6.74284Z" stroke="#6667AB" stroke-width="2" stroke-linecap="round"/>
<path d="M293.973 206.174C293.973 206.174 302.286 197.608 309.48 195.863C319.039 193.544 325.905 206.941 325.289 213.572C324.672 220.204 318.195 220.82 314.031 220.204C309.867 219.587 306.705 214.475 308.17 208.714C309.635 202.954 319.441 192.126 333.116 193.223C346.791 194.32 353.393 201.774 348.062 209.433C346.109 212.237 343.567 213.662 340.911 214.475C338.255 215.287 332.76 213.821 333.207 208.241C333.655 202.662 345.102 193.312 354.889 194.97C363.654 196.454 371.883 203.135 371.332 210.003C370.781 216.87 364.292 216.35 362.898 216.238C361.504 216.126 357.739 215.284 357.393 210.181C357.047 205.078 360.974 189.086 381.946 193.414" stroke="#6667AB" stroke-width="2.67207" stroke-linecap="round"/>
<path d="M173.928 378.828C171.871 378.828 175.379 353.508 166.607 356.367C158.267 359.085 169.929 378.828 167.969 378.828C166.01 378.828 152.314 377.691 151.402 383.881C150.384 390.795 168.325 386.925 168.86 387.812C169.394 388.699 161.815 399.199 166.607 402.411C171.571 405.739 177.91 393.427 178.996 393.427C180.082 393.427 185.696 413.597 190.259 408.027C193.967 403.499 185.128 393.427 186.88 393.427C188.633 393.427 201.709 394.45 203.775 387.812C206.3 379.699 183.734 385.492 182.375 383.881C181.016 382.27 193.252 369.339 186.88 365.913C180.589 362.53 175.985 378.828 173.928 378.828Z" stroke="#6667AB" stroke-width="2.67207" stroke-linecap="round"/>
<path d="M228.677 154.311C233.946 150.766 247.824 151.512 253.093 155.057C258.674 158.813 257.906 166.63 253.093 170.892C247.114 176.186 235.118 176.013 228.677 170.892C224.752 167.771 224.991 163.425 228.677 160.159C233.259 156.099 243.19 155.592 248.276 159.335C251.689 161.846 251.105 165.719 247.395 167.615C240.981 170.892 234.045 166.202 234.045 166.202" stroke="#6667AB" stroke-width="2.67207" stroke-linecap="round"/>
<path d="M259.758 306.301C270.424 300.999 281.834 321.378 281.834 321.378C281.834 321.378 295.521 301.232 304.782 306.301C314.042 311.37 284.728 344.657 281.834 342.751C270.186 335.082 250.18 311.062 259.758 306.301Z" stroke="#6667AB" stroke-width="2.67207" stroke-linecap="round"/>
<path d="M254.118 250.376C254.118 250.376 251.624 261.955 254.118 280.303" stroke="#6667AB" stroke-width="2.85021" stroke-linecap="round"/>
<path d="M243.786 266.497C251.268 264.894 260.442 266.497 260.442 266.497" stroke="#6667AB" stroke-width="2.85021" stroke-linecap="round"/>
<path d="M247.25 276.132C253.405 260.886 267.834 248.594 267.834 248.594" stroke="#6667AB" stroke-width="2.85021" stroke-linecap="round"/>
<path d="M242.182 254.206C248.506 263.736 266.251 278.757 266.251 278.757" stroke="#6667AB" stroke-width="2.85021" stroke-linecap="round"/>
<path d="M196.073 199.202C195.36 201.221 191.762 205.259 183.069 205.259" stroke="#6667AB" stroke-width="2.67207" stroke-linecap="round"/>
<path d="M196.073 231.802C196.786 224.914 200.384 211.138 209.077 211.138" stroke="#6667AB" stroke-width="2.67207" stroke-linecap="round"/>
<path d="M196.073 199.024C196.786 203.062 200.384 211.138 209.077 211.138" stroke="#6667AB" stroke-width="2.67207" stroke-linecap="round"/>
<path d="M196.073 231.802C195.36 222.954 191.762 205.259 183.069 205.259" stroke="#6667AB" stroke-width="2.67207" stroke-linecap="round"/>
<path d="M99.8234 289.758C108.537 286.488 119.199 284.83 127.734 289.57C129.895 290.771 131.752 292.594 133.132 294.74M133.132 294.74C135.233 298.008 136.227 302.025 135.502 305.732C134.368 311.532 130.782 316.926 124.541 317.492C121.289 317.788 118.32 316.617 117.337 313.27C115.834 308.155 120.418 302.155 124.296 299.408C126.977 297.509 129.963 295.947 133.132 294.74ZM200.2 292.084C191.635 288.443 181.054 286.329 172.324 290.698C170.113 291.805 168.179 293.546 166.708 295.631M166.708 295.631C164.468 298.805 163.303 302.776 163.868 306.511C164.752 312.354 168.103 317.897 174.313 318.731C177.55 319.166 180.566 318.124 181.693 314.822C183.414 309.777 179.092 303.585 175.336 300.675C172.739 298.662 169.822 296.973 166.708 295.631ZM166.708 295.631C155.767 290.913 143.556 289.851 133.021 294.701" stroke="#6667AB" stroke-width="2.67207" stroke-linecap="round"/>
<path d="M195.191 282.812C196.883 284.835 200.616 289.609 202.005 292.525" stroke="#6667AB" stroke-width="2.67207" stroke-linecap="round"/>
<path d="M202.005 292.525C199.575 293.55 194.073 296.09 191.505 298.049" stroke="#6667AB" stroke-width="2.67207" stroke-linecap="round"/>
<path d="M164.365 125.151C165.478 124.451 168.086 122.928 169.612 122.44" stroke="#6667AB" stroke-width="2.67207" stroke-linecap="round"/>
<path d="M169.958 122.58C170.436 123.922 171.648 126.983 172.668 128.497" stroke="#6667AB" stroke-width="2.67207" stroke-linecap="round"/>
<path d="M128.559 179.877C128.559 179.877 142.461 141.932 147.089 140.507C151.717 139.082 140.323 172.394 147.089 172.661C153.854 172.928 169.205 124.287 169.205 124.287" stroke="#6667AB" stroke-width="2.67207" stroke-linecap="round"/>
</svg>
