<svg width="428" height="234" viewBox="0 0 428 234" fill="none" xmlns="http://www.w3.org/2000/svg">
<path d="M38.5742 2.61445H4.26938C-1.61194 2.61445 1.45006 14.7839 1.54844 19.6181L2.44425 63.6357C2.59936 71.2575 1.35454 78.4154 0.911267 85.9873C-0.27916 106.322 0.664292 126.877 1.07958 147.283C1.37692 161.894 2.76078 175.633 4.79007 190.066C6.97453 205.603 1.11572 223.397 13.6122 232.85C17.8997 236.093 24.407 231.284 29.237 232.85C32.2683 233.832 36.9397 231.836 39.9591 232.85C45.1261 234.584 47.7232 233.918 52.6916 232.85C78.8267 232.85 105.077 229.881 130.427 232.85C144.622 234.512 160.519 230.317 174.656 232.85C186.203 234.918 197.237 232.85 208.832 232.85C223.717 232.85 238.294 234.942 253.061 232.85C265.588 231.075 278.114 233.184 290.549 230.93C301.179 229.003 310.764 233.228 321.375 230.93C329.182 229.24 337.902 230.93 345.83 230.93C368.367 230.93 391.367 232.427 413.801 230.244C424.522 229.201 426.498 228.33 427.536 215.846C428.103 209.029 427.368 201.999 427.342 195.14C427.31 186.558 425.527 178.769 426.612 170.437C428.155 158.59 426.377 147.742 426.131 135.651C425.865 122.577 425.562 108.942 424.302 96.0117C422.383 76.3107 423.526 57.8418 423.122 37.993C422.95 29.5588 423.252 21.366 423.578 12.9675C423.649 11.1369 423.977 8.02453 423.272 6.31686C420.796 0.318397 406.63 0.146171 402.456 0.146171C391.516 0.146171 385.289 0.327641 374.31 0.146148C361.641 -0.0632904 347.382 -0.0335829 334.431 0.146171C289.435 0.7707 242.453 1.32007 197.446 2.61445C179.939 3.11793 166.609 1.35975 149.196 2.61445C136.756 3.5108 123.469 2.61445 110.998 2.61445C98.9249 2.61445 87.3884 5.60452 75.4815 2.61445C63.7097 -0.341702 50.5979 2.61445 38.5742 2.61445Z" fill="#F5F5F5"/>
</svg>
