<svg width="89" height="89" viewBox="0 0 89 89" fill="none" xmlns="http://www.w3.org/2000/svg">
<path d="M38.2905 38.4809C34.9822 38.4809 40.6232 -2.23551 26.5179 2.36197C13.107 6.73313 31.8592 38.4809 28.7081 38.4809C25.5571 38.4809 3.53336 36.6528 2.06714 46.6077C0.429635 57.7254 29.2807 51.5024 30.1403 52.9285C30.9998 54.3546 18.8123 71.24 26.5179 76.4058C34.5008 81.7575 44.6941 61.9582 46.4408 61.9582C48.1875 61.9582 57.2149 94.3937 64.5525 85.4355C70.5157 78.1552 56.3006 61.9582 59.119 61.9582C61.9374 61.9582 82.9641 63.6037 86.2865 52.9285C90.3469 39.8821 54.0599 49.1983 51.8743 46.6077C49.6887 44.017 69.3652 23.222 59.119 17.7125C49.0021 12.2726 41.5989 38.4809 38.2905 38.4809Z" stroke="#6667AB" stroke-width="3.74662" stroke-linecap="round"/>
</svg>
