<svg width="50" height="96" viewBox="0 0 50 96" fill="none" xmlns="http://www.w3.org/2000/svg">
<path fill-rule="evenodd" clip-rule="evenodd" d="M23.9099 0.00672066C22.7305 0.0880079 21.8241 0.169871 21.3125 0.241286C19.7317 0.46205 18.5682 0.762818 16.5354 1.47615C16.1046 1.62731 15.5912 1.803 15.3945 1.86656C13.4653 2.48991 12.4586 2.97221 10.7923 4.0714C10.5195 4.25136 10.079 4.53526 9.8134 4.70229C9.20403 5.08547 8.83494 5.34968 8.2244 5.83976C7.05045 6.78208 6.07173 7.71031 5.34218 8.57336C4.71567 9.31448 4.17164 10.0502 3.89444 10.5312C3.33243 11.5065 2.57236 12.9954 2.25013 13.7524C1.97616 14.396 1.30117 16.0943 1.09954 16.6475C0.566582 18.1094 0.242309 19.4782 0.0599938 21.0354C0.00384249 21.5151 -0.0222622 24.2959 0.0232644 24.9477C0.0540941 25.3893 0.138647 26.1239 0.231893 26.7604C0.260609 26.9565 0.3254 27.438 0.375887 27.8306C0.553738 29.214 0.717024 30.167 0.927193 31.0484C1.00997 31.3956 1.11285 31.7605 1.72493 33.8778C1.99161 34.8003 2.25386 35.5886 2.55696 36.3787C3.23378 38.143 3.93187 39.3943 5.04795 40.8437C5.28642 41.1534 5.7308 41.736 6.0355 42.1385C7.69435 44.3294 8.32705 44.9834 10.1939 46.4367C12.0175 47.8562 13.171 48.5685 14.708 49.2241C16.3546 49.9265 17.8781 50.4398 19.0171 50.6761C20.3163 50.9457 21.209 51.0165 23.058 50.9969C24.1922 50.9849 24.368 50.9771 24.8628 50.917C26.5597 50.7109 27.96 50.3753 30.2012 49.6378C31.6088 49.1745 33.3823 48.4585 35.0716 47.6714C35.2737 47.5773 35.6203 47.4271 35.8417 47.3376C37.0945 46.8317 39.0342 45.7351 40.1376 44.9091C41.4937 43.8938 42.3525 42.9259 43.2798 41.3675C43.5122 40.977 43.6541 40.7699 43.8003 40.608C44.213 40.151 44.702 39.5252 45.028 39.0368C45.638 38.1229 46.7806 36.0327 47.3481 34.7924C48.5936 32.0704 49.238 29.9433 49.7117 26.9903C49.94 25.5673 50.0374 23.9098 49.9871 22.3027C49.9539 21.2406 49.7781 20.1515 49.3847 18.5709C49.111 17.4712 48.911 16.8427 48.5929 16.0831C48.3621 15.5319 47.1827 12.9273 46.981 12.5234C46.1688 10.8966 45.0233 9.34127 43.238 7.44128C41.5537 5.6489 40.1949 4.44093 38.9088 3.593C36.9924 2.32935 34.9762 1.47704 33.0858 1.13128C32.8848 1.09451 32.3053 1.00561 31.7981 0.93372C30.5828 0.76143 30.3556 0.72165 29.6138 0.551193C28.2835 0.245502 27.4965 0.108304 26.6901 0.0415768C26.3589 0.014158 24.1955 -0.0129465 23.9099 0.00672066Z" fill="#6667AB" fill-opacity="0.5"/>
<path fill-rule="evenodd" clip-rule="evenodd" d="M11.955 65.0041C11.3652 65.0535 10.9121 65.1033 10.6563 65.1467C9.86584 65.2809 9.28408 65.4637 8.26768 65.8973C8.05232 65.9891 7.79562 66.0959 7.69723 66.1346C6.73265 66.5135 6.22931 66.8066 5.39616 67.4748C5.25976 67.5842 5.03951 67.7567 4.9067 67.8583C4.60202 68.0912 4.41747 68.2518 4.1122 68.5497C3.52522 69.1224 3.03586 69.6867 2.67109 70.2113C2.35783 70.6617 2.08582 71.109 1.94722 71.4013C1.66621 71.9941 1.28618 72.8992 1.12506 73.3593C0.988079 73.7505 0.650584 74.7828 0.549768 75.119C0.283291 76.0077 0.121155 76.8397 0.0299969 77.7863C0.00192125 78.0778 -0.0111311 79.7681 0.0116322 80.1643C0.027047 80.4327 0.0693236 80.8792 0.115947 81.2661C0.130304 81.3853 0.1627 81.678 0.187944 81.9166C0.276869 82.7575 0.358512 83.3368 0.463596 83.8726C0.504985 84.0836 0.556425 84.3054 0.862463 85.5924C0.995806 86.1531 1.12693 86.6323 1.27848 87.1125C1.61689 88.185 1.96594 88.9455 2.52398 89.8266C2.64321 90.0148 2.8654 90.369 3.01775 90.6136C3.84717 91.9453 4.16352 92.3429 5.09696 93.2262C6.00874 94.089 6.58549 94.522 7.35402 94.9205C8.17731 95.3475 8.93903 95.6595 9.50857 95.8031C10.1582 95.967 10.6045 96.0101 11.529 95.9981C12.0961 95.9908 12.184 95.9861 12.4314 95.9496C13.2799 95.8243 13.98 95.6203 15.1006 95.172C15.8044 94.8904 16.6912 94.4552 17.5358 93.9767C17.6369 93.9195 17.8101 93.8282 17.9209 93.7739C18.5473 93.4663 19.5171 92.7998 20.0688 92.2977C20.7469 91.6805 21.1763 91.0922 21.6399 90.1449C21.7561 89.9076 21.827 89.7817 21.9002 89.6833C22.1065 89.4055 22.351 89.0251 22.514 88.7282C22.819 88.1727 23.3903 86.9022 23.674 86.1483C24.2968 84.4938 24.619 83.2009 24.8558 81.4059C24.97 80.5409 25.0187 79.5334 24.9935 78.5565C24.9769 77.911 24.889 77.249 24.6924 76.2882C24.5555 75.6198 24.4555 75.2377 24.2964 74.776C24.181 74.4409 23.5914 72.8578 23.4905 72.6122C23.0844 71.6234 22.5117 70.678 21.619 69.5231C20.7769 68.4336 20.0974 67.6994 19.4544 67.184C18.4962 66.4159 17.4881 65.8978 16.5429 65.6876C16.4424 65.6653 16.1526 65.6113 15.899 65.5676C15.2914 65.4628 15.1778 65.4387 14.8069 65.335C14.1417 65.1492 13.7483 65.0658 13.345 65.0253C13.1795 65.0086 12.0978 64.9921 11.955 65.0041Z" fill="#6667AB" fill-opacity="0.5"/>
</svg>
