<svg width="58" height="59" viewBox="0 0 58 59" fill="none" xmlns="http://www.w3.org/2000/svg">
<path fill-rule="evenodd" clip-rule="evenodd" d="M27.4309 0.00777488C26.0778 0.101813 25.0379 0.196518 24.451 0.279134C22.6374 0.534528 21.3025 0.882475 18.9704 1.7077C18.4762 1.88257 17.8872 2.08582 17.6615 2.15935C15.4482 2.88048 14.2933 3.43844 12.3816 4.71005C12.0686 4.91824 11.5633 5.24668 11.2585 5.4399C10.5594 5.88319 10.136 6.18885 9.43553 6.7558C8.0887 7.84594 6.96586 8.91977 6.12887 9.9182C5.4101 10.7756 4.78596 11.6267 4.46794 12.1832C3.82317 13.3114 2.95117 15.0339 2.58148 15.9096C2.26717 16.6541 1.49278 18.6189 1.26145 19.2588C0.650017 20.9501 0.277992 22.5336 0.0688285 24.3351C0.00440834 24.89 -0.0255406 28.107 0.0266903 28.861C0.06206 29.3719 0.159065 30.2218 0.266042 30.9581C0.298986 31.1849 0.373319 31.742 0.43124 32.1962C0.635282 33.7965 0.822613 34.899 1.06373 35.9188C1.1587 36.3204 1.27673 36.7425 1.97894 39.1919C2.2849 40.2592 2.58577 41.1711 2.9335 42.0852C3.70999 44.1262 4.51088 45.5738 5.79132 47.2506C6.0649 47.6088 6.57472 48.2829 6.92429 48.7484C8.82742 51.2831 9.55329 52.0396 11.6951 53.7208C13.7872 55.363 15.1106 56.1871 16.8739 56.9456C18.763 57.7581 20.5108 58.352 21.8176 58.6253C23.3081 58.9371 24.3323 59.0191 26.4536 58.9965C27.7548 58.9826 27.9564 58.9736 28.5241 58.904C30.4709 58.6655 32.0774 58.2774 34.6486 57.4241C36.2636 56.8881 38.2982 56.0599 40.2363 55.1493C40.4682 55.0404 40.8657 54.8666 41.1198 54.7631C42.5571 54.1778 44.7824 52.9092 46.0482 51.9536C47.6042 50.7791 48.5894 49.6593 49.6533 47.8565C49.9198 47.4048 50.0826 47.1652 50.2504 46.9779C50.7239 46.4492 51.2849 45.7252 51.6589 45.1602C52.3587 44.1029 53.6695 41.6848 54.3206 40.25C55.7495 37.1011 56.4888 34.6403 57.0323 31.2241C57.2942 29.5778 57.4059 27.6603 57.3482 25.8012C57.3101 24.5725 57.1084 23.3125 56.6571 21.484C56.3431 20.2118 56.1136 19.4846 55.7487 18.6059C55.4839 17.9682 54.1309 14.9551 53.8995 14.4878C52.9677 12.6059 51.6535 10.8066 49.6052 8.60854C47.673 6.53501 46.114 5.13755 44.6386 4.1566C42.4399 2.69474 40.1269 1.70873 37.958 1.30874C37.7274 1.2662 37.0626 1.16335 36.4807 1.08019C35.0864 0.88087 34.8258 0.83485 33.9748 0.637655C32.4485 0.284012 31.5457 0.125292 30.6205 0.0480986C30.2406 0.0163789 27.7586 -0.0149773 27.4309 0.00777488Z" fill="#6667AB" fill-opacity="0.5"/>
</svg>
