<svg width="107" height="110" viewBox="0 0 107 110" fill="none" xmlns="http://www.w3.org/2000/svg">
<path fill-rule="evenodd" clip-rule="evenodd" d="M51.1076 0.0144857C48.5865 0.189692 46.6491 0.36614 45.5556 0.520066C42.1766 0.995899 39.6895 1.64417 35.3444 3.18169C34.4237 3.50749 33.3263 3.88618 32.9057 4.02317C28.7821 5.36674 26.6304 6.40629 23.0686 8.77547C22.4855 9.16336 21.5439 9.77528 20.9762 10.1353C19.6737 10.9612 18.8847 11.5307 17.5797 12.587C15.0704 14.6181 12.9784 16.6188 11.4189 18.479C10.0798 20.0764 8.91691 21.6622 8.32438 22.699C7.12308 24.801 5.49844 28.0102 4.80966 29.6418C4.22405 31.029 2.78125 34.6897 2.35026 35.8818C1.21107 39.0329 0.517937 41.9832 0.128237 45.3397C0.00821335 46.3735 -0.0475856 52.3672 0.0497278 53.7721C0.115626 54.7239 0.296359 56.3073 0.495673 57.6793C0.557052 58.1018 0.695545 59.1398 0.80346 59.9859C1.18362 62.9676 1.53264 65.0217 1.98188 66.9216C2.15882 67.6699 2.37872 68.4564 3.68704 73.0199C4.25708 75.0084 4.81764 76.7074 5.46552 78.4104C6.91222 82.2132 8.4044 84.9102 10.79 88.0344C11.2997 88.7018 12.2496 89.9576 12.9009 90.825C16.4467 95.5474 17.7991 96.957 21.7896 100.089C25.6874 103.149 28.153 104.684 31.4385 106.097C34.9581 107.611 38.2144 108.718 40.6492 109.227C43.4262 109.808 45.3344 109.961 49.2867 109.919C51.711 109.893 52.0866 109.876 53.1443 109.746C56.7715 109.302 59.7646 108.579 64.5552 106.989C67.564 105.99 71.3548 104.447 74.9658 102.751C75.3978 102.548 76.1385 102.224 76.6119 102.031C79.2897 100.941 83.4357 98.5772 85.7942 96.7968C88.6931 94.6084 90.5288 92.5222 92.5109 89.1633C93.0075 88.3217 93.3108 87.8753 93.6234 87.5264C94.5056 86.5412 95.5508 85.1923 96.2476 84.1396C97.5515 82.1698 99.9937 77.6646 101.207 74.9913C103.869 69.1245 105.246 64.5397 106.259 58.1748C106.747 55.1075 106.955 51.5349 106.848 48.0711C106.777 45.7819 106.401 43.4344 105.56 40.0277C104.975 37.6574 104.547 36.3026 103.868 34.6654C103.374 33.4773 100.853 27.8635 100.422 26.9928C98.6861 23.4865 96.2376 20.1341 92.4214 16.0389C88.8213 12.1756 85.9167 9.57197 83.1678 7.74432C79.0713 5.02067 74.7619 3.1836 70.721 2.43836C70.2913 2.35911 69.0527 2.16748 67.9685 2.01253C65.3708 1.64118 64.8853 1.55544 63.2997 1.18804C60.4561 0.529153 58.7739 0.233437 57.0502 0.0896143C56.3424 0.0305161 51.7181 -0.0279047 51.1076 0.0144857Z" fill="#00A7B7" fill-opacity="0.5"/>
</svg>
