<svg width="176" height="71" viewBox="0 0 176 71" fill="none" xmlns="http://www.w3.org/2000/svg">
<path d="M4.96215 17.6631C8.81096 24.0716 14.5403 30.0706 21.7668 30.0984C26.385 30.1162 31.5548 26.164 33.5012 20.8038C35.3394 15.7415 35.5171 9.91847 31.9884 6.72532C30.1491 5.06094 27.8437 4.67473 25.7914 6.87555C22.6559 10.2379 22.8181 16.9766 23.9688 20.8448C27.56 32.9168 37.8994 42.3274 48.8796 42.8073" stroke="#00A7B7" stroke-width="2" stroke-linecap="round"/>
<path d="M41.0029 47.0222C42.9001 46.2731 47.2015 44.4063 49.2293 42.9322" stroke="#00A7B7" stroke-width="2" stroke-linecap="round"/>
<path d="M49.2314 42.9316C47.9794 41.3214 45.2264 37.5257 44.2309 35.2248" stroke="#00A7B7" stroke-width="2" stroke-linecap="round"/>
<path d="M56.8747 26.9201C56.8865 26.7121 56.9362 26.5259 57.0238 26.3613C57.1251 26.1845 57.2993 26.1031 57.5463 26.1171C57.7543 26.1289 57.9436 26.3548 58.1143 26.7949C58.2979 27.2357 58.4745 27.8 58.6441 28.4878C58.8275 29.1633 59.0133 29.9108 59.2015 30.73C59.3905 31.5363 59.5936 32.3238 59.8108 33.0926C60.0287 33.8483 60.2637 34.5333 60.5158 35.1476C60.7685 35.7488 61.0508 36.1756 61.3625 36.4281C61.6819 36.3158 61.9418 36.1023 62.1422 35.7877C62.3564 35.4607 62.5349 35.0731 62.6778 34.6247C62.8213 34.1634 62.9343 33.6677 63.0165 33.1376C63.1125 32.5953 63.2016 32.0592 63.2839 31.5291C63.3799 30.9868 63.4748 30.464 63.5686 29.9607C63.6631 29.4444 63.7799 28.9946 63.9191 28.6112C64.0712 28.2286 64.2514 27.9258 64.4597 27.7029C64.668 27.48 64.9216 27.377 65.2206 27.394C65.4026 27.4043 65.564 27.433 65.7048 27.4801C65.8463 27.5143 65.9624 27.6513 66.0532 27.8912C66.0956 28.0631 66.166 28.3149 66.2646 28.6466C66.3631 28.9782 66.4717 29.3626 66.5904 29.7997C66.722 30.2375 66.8648 30.7086 67.0188 31.213C67.1865 31.705 67.3545 32.1906 67.5229 32.6697C67.7044 33.1495 67.8804 33.6094 68.0511 34.0495C68.2224 34.4765 68.3906 34.8447 68.5557 35.1541C68.5787 35.2076 68.6389 35.2957 68.7363 35.4186C68.8474 35.5293 68.922 35.5922 68.9603 35.6074L69.8464 34.8165C70.0799 34.6081 70.2674 34.2927 70.4088 33.8703C70.5508 33.435 70.6641 32.9328 70.7486 32.3637C70.8461 31.7954 70.9198 31.1866 70.9697 30.5374C71.0333 29.8759 71.0901 29.2205 71.14 28.5712C71.1899 27.922 71.2517 27.293 71.3254 26.6842C71.3991 26.0754 71.4943 25.5461 71.6111 25.0963C71.7287 24.6334 71.8797 24.2703 72.0642 24.0069C72.2487 23.7435 72.4905 23.6203 72.7895 23.6373C72.8025 23.638 72.8151 23.6452 72.8274 23.659C72.8534 23.6605 72.8794 23.6619 72.9054 23.6634C72.9436 23.6786 72.9693 23.6866 72.9823 23.6873C72.9953 23.6881 73.0263 23.7159 73.0753 23.7709C73.1251 23.8128 73.1684 23.8544 73.2052 23.8956C73.255 23.9376 73.2918 23.9788 73.3156 24.0193C73.3523 24.0605 73.3765 24.0944 73.388 24.1212C73.3829 24.2122 73.3736 24.3747 73.3603 24.6087C73.3601 24.8434 73.3522 25.0973 73.3367 25.3703C73.3212 25.6433 73.3064 25.9033 73.2924 26.1503C73.2921 26.385 73.2894 26.5479 73.2842 26.6389C73.2694 26.8989 73.2426 27.256 73.2038 27.7103C73.178 28.1653 73.129 28.6842 73.0568 29.2669C72.9983 29.8375 72.9177 30.4524 72.8151 31.1117C72.7262 31.7587 72.6048 32.4039 72.4509 33.0473C72.2977 33.6776 72.1132 34.2866 71.8972 34.8743C71.695 35.4497 71.451 35.9575 71.1651 36.3977C70.8931 36.8257 70.5803 37.1666 70.2268 37.4204C69.887 37.662 69.4896 37.7698 69.0346 37.744C68.5926 37.7189 68.2238 37.5545 67.928 37.2508C67.646 36.9348 67.4066 36.556 67.21 36.1145C67.0141 35.66 66.8525 35.1748 66.7253 34.6589C66.5988 34.1301 66.4636 33.6398 66.3197 33.1882C66.1888 32.7374 66.034 32.3634 65.8552 32.0664C65.6902 31.757 65.4712 31.5946 65.1982 31.5791C65.1722 31.5776 65.1328 31.5819 65.0801 31.592C65.0404 31.6028 65.0075 31.6074 64.9815 31.6059C64.9655 31.6572 64.9136 31.8825 64.8258 32.2818C64.7379 32.6811 64.6196 33.1569 64.4708 33.7093C64.3228 34.2486 64.1463 34.832 63.9411 35.4594C63.7359 36.0868 63.5077 36.6607 63.2565 37.1812C63.0182 37.7024 62.7587 38.1376 62.4781 38.4868C62.2112 38.8238 61.9282 38.9838 61.6292 38.9668C61.0182 38.9321 60.4721 38.6729 59.991 38.1891C59.5105 37.6923 59.0895 37.0685 58.7278 36.3176C58.3799 35.5545 58.0819 34.7159 57.8338 33.802C57.5857 32.888 57.3821 31.9961 57.2228 31.1263C57.0772 30.2443 56.9735 29.4298 56.9116 28.6829C56.8634 27.9237 56.8511 27.3361 56.8747 26.9201ZM74.0269 34.2322C74.0667 33.5303 74.1911 32.8331 74.3999 32.1407C74.6088 31.4483 74.9111 30.8329 75.3068 30.2946C75.7155 29.757 76.2224 29.3293 76.8273 29.0115C77.4452 28.6944 78.1767 28.5599 79.0217 28.6079C79.5027 28.6352 79.92 28.7502 80.2737 28.9528C80.6281 29.1425 80.9206 29.3873 81.1514 29.6874C81.3822 29.9874 81.545 30.3357 81.6398 30.7324C81.7484 31.1167 81.7909 31.5169 81.7673 31.9329C81.7297 32.5959 81.5371 33.2306 81.1897 33.8368C80.8553 34.4439 80.4144 34.9731 79.8671 35.4246C79.3335 35.8638 78.7283 36.1881 78.0512 36.3974C77.375 36.5938 76.696 36.6074 76.0144 36.4383C76.006 36.816 76.1121 37.1285 76.3329 37.3758C76.5673 37.6108 76.8502 37.7964 77.1816 37.9326C77.5129 38.0688 77.8595 38.1668 78.2213 38.2264C78.5838 38.2731 78.9081 38.3045 79.1941 38.3208C79.493 38.3377 79.774 38.3276 80.037 38.2904C80.2999 38.2531 80.5632 38.2094 80.8269 38.1592C81.0906 38.1089 81.3539 38.0652 81.6169 38.0279C81.8928 37.9914 82.1803 37.9817 82.4793 37.9987C82.5963 38.0053 82.7129 38.0184 82.8292 38.0381C82.9455 38.0577 83.0541 38.0965 83.1552 38.1544C83.2569 38.1993 83.3374 38.2756 83.3965 38.3833C83.4563 38.478 83.4822 38.5968 83.4741 38.7398C83.46 38.9868 83.3572 39.1897 83.1656 39.3483C82.9748 39.494 82.733 39.6172 82.4404 39.718C82.1607 39.8195 81.8501 39.8931 81.5084 39.9389C81.1674 39.9717 80.8334 39.9984 80.5062 40.019C80.1927 40.0273 79.8994 40.0236 79.6264 40.0081C79.3657 40.0064 79.1703 40.0018 79.0403 39.9944C78.2083 39.9472 77.4682 39.7748 76.82 39.4771C76.1725 39.1665 75.6345 38.7643 75.2061 38.2704C74.7784 37.7636 74.4599 37.1717 74.2505 36.4947C74.0549 35.8054 73.9804 35.0512 74.0269 34.2322ZM76.1658 33.0821C76.14 33.5371 76.1797 33.8719 76.2848 34.0866C76.403 34.3019 76.7026 34.4233 77.1836 34.4506C77.5216 34.4698 77.8564 34.4301 78.1881 34.3316C78.5205 34.22 78.8229 34.0611 79.0955 33.8549C79.381 33.6494 79.6103 33.4016 79.7832 33.1114C79.9562 32.8213 80.0527 32.5007 80.0726 32.1497C80.0837 31.9547 80.0756 31.7521 80.0484 31.5419C80.0342 31.3324 79.9799 31.1402 79.8855 30.9653C79.7919 30.7774 79.6635 30.6267 79.5004 30.5131C79.351 30.3872 79.1463 30.3169 78.8864 30.3022C78.4964 30.28 78.1337 30.3507 77.7984 30.5143C77.4768 30.6656 77.1974 30.8779 76.9601 31.1514C76.7236 31.4118 76.5369 31.7142 76.4 32.0586C76.2638 32.3899 76.1857 32.7311 76.1658 33.0821ZM93.998 33.5859C94.0695 32.3249 94.4152 31.4055 95.0349 30.8277C95.6546 30.2499 96.5689 29.9954 97.7779 30.064C98.2719 30.092 98.7763 30.1663 99.2911 30.2868C99.8189 30.4081 100.297 30.5983 100.726 30.8574C101.155 31.1035 101.495 31.4358 101.745 31.8543C102.008 32.2735 102.122 32.8016 102.086 33.4386C102.046 34.1406 101.852 34.7947 101.505 35.401C101.171 35.995 100.755 36.5518 100.256 37.0712C99.7705 37.5783 99.2351 38.0501 98.6495 38.4863C98.0777 38.9103 97.5395 39.3167 97.0349 39.7054C97.0059 39.7559 96.9737 39.8649 96.9381 40.0324C96.9162 40.1877 96.9038 40.2913 96.9008 40.3433C96.8765 40.7723 96.9756 41.2083 97.1983 41.6513C97.4332 42.1081 97.6876 42.566 97.9615 43.0249C98.2347 43.4969 98.4811 43.9804 98.7008 44.4754C98.9205 44.9704 99.0155 45.4779 98.986 45.9979C98.9683 46.3099 98.893 46.4882 98.76 46.5329C98.6263 46.5905 98.3515 46.6075 97.9355 46.5839C97.6814 46.4651 97.4354 46.2033 97.1976 45.7986C96.972 45.4076 96.7451 44.9252 96.5168 44.3514C96.3015 43.7784 96.0903 43.1339 95.8832 42.4179C95.6883 41.7156 95.5007 41.0007 95.3203 40.2731C95.1536 39.5333 94.9927 38.8069 94.8375 38.0938C94.6961 37.3685 94.5709 36.7028 94.4619 36.0967C94.3528 35.4906 94.252 34.9697 94.1593 34.534C94.0804 34.0861 94.0266 33.7701 93.998 33.5859ZM95.6455 33.8555C95.6344 34.0505 95.6312 34.3372 95.6358 34.7157C95.6411 35.0812 95.6724 35.4481 95.7298 35.8165C95.8001 36.1857 95.912 36.5116 96.0655 36.7942C96.2198 37.0638 96.4464 37.207 96.7454 37.224C97.1484 37.2469 97.5591 37.1333 97.9776 36.8832C98.4091 36.6338 98.7927 36.3099 99.1283 35.9117C99.4769 35.5141 99.762 35.0869 99.9836 34.63C100.219 34.1608 100.348 33.7312 100.37 33.3412C100.388 33.0162 100.325 32.7583 100.179 32.5674C100.034 32.3635 99.841 32.2026 99.5999 32.0846C99.3725 31.9543 99.1231 31.8684 98.8516 31.8269C98.5808 31.7724 98.3219 31.7381 98.0749 31.7241C97.3339 31.6821 96.7505 31.8511 96.3246 32.2312C95.9124 32.5991 95.6861 33.1405 95.6455 33.8555ZM103.258 33.1139C103.265 32.9969 103.278 32.8803 103.298 32.764C103.318 32.6348 103.35 32.5257 103.395 32.437C103.439 32.3352 103.503 32.254 103.584 32.1934C103.679 32.1336 103.805 32.1081 103.961 32.117C104.091 32.1243 104.228 32.2365 104.372 32.4533C104.53 32.6579 104.684 32.921 104.836 33.2426C104.988 33.5512 105.131 33.8919 105.267 34.2648C105.415 34.6384 105.539 34.9845 105.638 35.3031C105.751 35.6095 105.84 35.8754 105.906 36.1008C105.971 36.3262 106.01 36.4458 106.022 36.4596C106.217 36.0142 106.434 35.5309 106.672 35.0097C106.91 34.4885 107.192 34.0089 107.517 33.5709C107.855 33.1206 108.241 32.7513 108.675 32.4629C109.122 32.1752 109.651 32.0488 110.262 32.0834C110.574 32.1012 110.863 32.1698 111.13 32.2893C111.411 32.3965 111.65 32.5535 111.847 32.7603C112.058 32.9549 112.221 33.1858 112.336 33.4532C112.451 33.7206 112.499 34.0233 112.48 34.3613C112.464 34.6473 112.335 34.8421 112.094 34.9458C111.867 35.0503 111.61 35.0944 111.324 35.0782L111.129 35.0671L110.338 34.181C110.312 34.1795 110.293 34.1719 110.281 34.1582C110.255 34.1567 110.229 34.1552 110.203 34.1537C110.19 34.14 110.171 34.1324 110.145 34.1309C109.69 34.1051 109.325 34.2148 109.051 34.46C108.79 34.693 108.583 34.9943 108.432 35.3639C108.281 35.7205 108.175 36.1057 108.112 36.5195C108.063 36.921 108.029 37.2908 108.01 37.6288C107.995 37.8888 108.006 38.1568 108.043 38.4327C108.08 38.6957 108.124 38.959 108.174 39.2227C108.225 39.4734 108.269 39.7367 108.305 40.0126C108.342 40.2756 108.353 40.5501 108.337 40.8361C108.306 41.3821 107.998 41.6384 107.413 41.6052C107.088 41.5868 106.759 41.3986 106.427 41.0407C106.096 40.6697 105.77 40.2078 105.45 39.6549C105.142 39.1027 104.85 38.4993 104.574 37.8446C104.299 37.1768 104.062 36.5309 103.863 35.9066C103.663 35.2823 103.506 34.7191 103.391 34.217C103.289 33.7156 103.245 33.3479 103.258 33.1139ZM112.983 37.9111C113.028 37.1051 113.259 36.3683 113.675 35.7007C114.092 35.0201 114.62 34.4502 115.259 33.9909C115.912 33.5193 116.63 33.1623 117.413 32.9198C118.209 32.6781 119.004 32.5798 119.797 32.6248C120.239 32.6499 120.621 32.815 120.943 33.1202C121.277 33.4262 121.55 33.7938 121.76 34.223C121.972 34.6393 122.123 35.0783 122.214 35.5399C122.318 36.0023 122.36 36.4025 122.341 36.7405C122.3 37.4685 122.084 38.167 121.694 38.8361C121.305 39.4921 120.815 40.0708 120.226 40.5721C119.638 41.0603 118.983 41.447 118.263 41.7322C117.542 42.0173 116.831 42.14 116.129 42.1001C115.505 42.0647 114.984 41.9308 114.567 41.6984C114.151 41.4531 113.823 41.1475 113.583 40.7818C113.343 40.403 113.172 39.9694 113.069 39.4811C112.981 38.9804 112.952 38.4571 112.983 37.9111ZM114.629 38.2002C114.61 38.5382 114.619 38.8387 114.656 39.1016C114.707 39.3523 114.799 39.5727 114.931 39.7628C115.077 39.9537 115.271 40.1081 115.512 40.2261C115.753 40.3312 116.056 40.394 116.42 40.4147C116.901 40.442 117.39 40.3393 117.886 40.1066C118.382 39.8609 118.83 39.5473 119.23 39.1657C119.644 38.7718 119.982 38.3345 120.244 37.8538C120.506 37.3731 120.65 36.8988 120.676 36.4308C120.688 36.2228 120.682 35.9942 120.657 35.745C120.632 35.4957 120.58 35.2646 120.5 35.0514C120.421 34.8382 120.301 34.6553 120.14 34.5028C119.979 34.3502 119.769 34.2665 119.509 34.2517C119.275 34.2384 118.991 34.3006 118.657 34.4381C118.336 34.5764 117.993 34.7591 117.628 34.9861C117.276 35.214 116.923 35.4743 116.567 35.7671C116.224 36.0606 115.907 36.3556 115.617 36.6521C115.326 36.9486 115.088 37.2351 114.903 37.5115C114.731 37.7886 114.639 38.0182 114.629 38.2002ZM122.817 34.2243C122.835 33.8993 122.902 33.6488 123.016 33.4727C123.143 33.2973 123.389 33.22 123.753 33.2406C123.792 33.2429 123.863 33.2534 123.966 33.2723C124.083 33.279 124.155 33.283 124.181 33.2845C124.249 33.6927 124.315 34.1398 124.378 34.626C124.456 35.0999 124.546 35.581 124.649 36.0694C124.751 36.5578 124.867 37.0404 124.997 37.5172C125.139 37.9948 125.317 38.4288 125.529 38.8191C125.777 38.5853 125.963 38.3024 126.086 37.9704C126.209 37.6383 126.307 37.3047 126.378 36.9696C126.45 36.6216 126.514 36.2927 126.571 35.9829C126.641 35.6609 126.754 35.3934 126.91 35.1805C127.066 34.9546 127.284 34.7974 127.562 34.7089C127.854 34.6212 128.244 34.6433 128.732 34.7754C129.278 34.8064 129.708 34.9351 130.021 35.1615C130.335 35.375 130.6 35.6444 130.817 35.9696C131.047 36.2827 131.262 36.6209 131.463 36.9845C131.678 37.3358 131.953 37.6579 132.289 37.9508C132.376 37.7862 132.486 37.5838 132.617 37.3434C132.748 37.0901 132.906 36.8317 133.091 36.5683C133.289 36.2926 133.494 36.0238 133.704 35.7619C133.928 35.4877 134.157 35.2464 134.391 35.0379C134.625 34.8165 134.863 34.6409 135.105 34.5112C135.348 34.3685 135.58 34.3034 135.801 34.3159C136.334 34.3462 136.786 34.5414 137.157 34.9015C137.528 35.2487 137.836 35.6835 138.08 36.206C138.338 36.7162 138.541 37.2885 138.687 37.9228C138.835 38.5441 138.944 39.1438 139.016 39.7217C139.087 40.2996 139.129 40.8301 139.14 41.3133C139.166 41.7843 139.173 42.1237 139.161 42.3317C139.151 42.5007 139.105 42.6285 139.022 42.7151C138.938 42.8017 138.837 42.8676 138.717 42.913C138.598 42.9453 138.466 42.964 138.323 42.9688C138.192 42.9745 138.068 42.974 137.951 42.9673C137.925 42.9658 137.886 42.9636 137.834 42.9607C137.783 42.9447 137.725 42.9284 137.661 42.9117C137.609 42.8958 137.539 42.8722 137.449 42.841L136.513 36.9386C136.515 36.8996 136.467 36.8252 136.369 36.7153C136.272 36.5924 136.198 36.5164 136.147 36.4875C136.108 36.4853 136.076 36.4769 136.051 36.4624C136.025 36.461 136.005 36.4599 135.992 36.4591C135.98 36.4454 135.968 36.4381 135.955 36.4374C135.682 36.4219 135.415 36.5176 135.156 36.7246C134.909 36.9323 134.672 37.1993 134.445 37.5255C134.218 37.8517 134.002 38.2176 133.796 38.6233C133.59 39.0289 133.404 39.4357 133.238 39.8436C133.072 40.2384 132.92 40.6081 132.783 40.9524C132.66 41.2845 132.561 41.5397 132.486 41.718C132.432 41.7411 132.327 41.7612 132.169 41.7783C132.012 41.7824 131.908 41.783 131.856 41.7801C131.492 41.7594 131.22 41.6201 131.039 41.362C130.858 41.0909 130.714 40.7632 130.605 40.3788C130.51 39.9952 130.429 39.5798 130.363 39.1326C130.311 38.6732 130.231 38.2513 130.122 37.8669C130.026 37.4833 129.875 37.1617 129.668 36.9021C129.475 36.6303 129.183 36.4834 128.793 36.4612C128.65 36.4531 128.506 36.5883 128.359 36.867C128.213 37.1456 128.076 37.5029 127.946 37.939C127.818 38.3621 127.694 38.8246 127.574 39.3264C127.455 39.8152 127.351 40.2788 127.26 40.7171C127.184 41.1432 127.124 41.5049 127.082 41.8025C127.039 42.1 127.017 42.2487 127.017 42.2487C126.989 42.2863 126.934 42.3288 126.853 42.3764C126.773 42.411 126.686 42.4517 126.592 42.4985C126.511 42.5461 126.424 42.5803 126.332 42.6011C126.252 42.6227 126.193 42.6323 126.154 42.6301C125.79 42.6095 125.448 42.427 125.129 42.0829C124.81 41.7257 124.522 41.279 124.266 40.7427C124.023 40.1942 123.803 39.5948 123.605 38.9446C123.42 38.295 123.267 37.6603 123.146 37.0405C123.025 36.4206 122.932 35.8611 122.869 35.362C122.82 34.8635 122.802 34.4843 122.817 34.2243ZM141.136 36.1447C141.14 36.0667 141.147 35.9432 141.157 35.7742C141.18 35.5929 141.197 35.4048 141.208 35.2098C141.232 35.0155 141.25 34.8274 141.26 34.6454C141.283 34.4641 141.297 34.3345 141.302 34.2565C141.456 34.0566 141.648 33.898 141.876 33.7805C142.118 33.6638 142.358 33.5731 142.596 33.5084C142.595 34.2126 142.663 34.9663 142.8 35.7697C142.937 36.573 143.087 37.3836 143.249 38.2014C143.412 39.0062 143.549 39.803 143.661 40.5918C143.786 41.3814 143.829 42.1142 143.791 42.7902C143.757 43.3752 143.442 43.6507 142.844 43.6168C142.48 43.5961 142.183 43.4293 141.953 43.1163C141.723 42.8032 141.543 42.4148 141.413 41.951C141.296 41.4748 141.208 40.9547 141.149 40.3905C141.09 39.8134 141.057 39.2507 141.049 38.7025C141.054 38.155 141.063 37.6534 141.076 37.1977C141.102 36.7427 141.122 36.3917 141.136 36.1447ZM141.824 28.8477C142.065 28.9658 142.263 29.1466 142.419 29.3902C142.575 29.6337 142.634 29.8523 142.597 30.0458C142.574 30.2271 142.423 30.349 142.146 30.4115C141.869 30.461 141.419 30.3571 140.794 30.1C140.814 29.749 140.896 29.4472 141.041 29.1946C141.199 28.9427 141.46 28.8271 141.824 28.8477ZM148.297 43.007C148.513 42.8758 148.771 42.7078 149.069 42.503C149.382 42.286 149.695 42.056 150.008 41.813C150.322 41.5699 150.617 41.3128 150.893 41.0416C151.17 40.7703 151.387 40.5088 151.544 40.2569C151.716 39.9928 151.808 39.7437 151.822 39.5097C151.835 39.2757 151.729 39.0741 151.504 38.9048C151.088 38.8812 150.632 38.8748 150.135 38.8858C149.64 38.8837 149.145 38.8687 148.651 38.8406C148.158 38.7996 147.68 38.7268 147.216 38.6222C146.765 38.5184 146.364 38.3521 146.012 38.1235C145.66 37.8948 145.384 37.5857 145.184 37.1962C144.998 36.7944 144.922 36.2945 144.956 35.6965C144.996 34.9945 145.162 34.3713 145.454 33.8271C145.759 33.2706 146.145 32.7904 146.611 32.3865C147.079 31.9696 147.594 31.6142 148.159 31.3202C148.737 31.0139 149.312 30.7596 149.884 30.5574C150.217 30.6676 150.52 30.8478 150.793 31.098C151.065 31.3482 151.298 31.6223 151.489 31.9201C151.382 32.2009 151.188 32.4116 150.906 32.5521C150.637 32.6933 150.324 32.8125 149.966 32.9095C149.621 33.0073 149.257 33.1105 148.873 33.2191C148.488 33.3277 148.134 33.4837 147.809 33.687C147.498 33.878 147.229 34.1431 147.001 34.4823C146.774 34.8085 146.644 35.2511 146.613 35.8101C146.589 36.2261 146.676 36.5375 146.873 36.7443C147.07 36.9511 147.335 37.1031 147.668 37.2003C148.003 37.2844 148.385 37.3322 148.814 37.3436C149.245 37.3419 149.682 37.3342 150.127 37.3202C150.584 37.3071 151.027 37.3127 151.456 37.337C151.886 37.3484 152.266 37.4222 152.597 37.5583C152.93 37.6815 153.186 37.8722 153.367 38.1302C153.561 38.389 153.644 38.7589 153.617 39.2399C153.605 39.4479 153.519 39.7104 153.357 40.0273C153.209 40.3449 153.007 40.6855 152.751 41.0492C152.51 41.4007 152.223 41.7496 151.89 42.0958C151.57 42.4429 151.233 42.7563 150.878 43.0361C150.537 43.3036 150.192 43.5253 149.843 43.7011C149.507 43.8647 149.197 43.9383 148.911 43.9221C148.638 43.9066 148.461 43.7988 148.381 43.5986C148.314 43.3992 148.286 43.202 148.297 43.007ZM154.425 38.7967C154.465 38.0947 154.589 37.3975 154.798 36.7051C155.007 36.0127 155.309 35.3974 155.705 34.859C156.113 34.3214 156.62 33.8938 157.225 33.576C157.843 33.2589 158.575 33.1244 159.42 33.1724C159.901 33.1997 160.318 33.3147 160.672 33.5173C161.026 33.707 161.319 33.9518 161.549 34.2518C161.78 34.5519 161.943 34.9002 162.038 35.2968C162.146 35.6812 162.189 36.0814 162.165 36.4974C162.128 37.1604 161.935 37.795 161.588 38.4013C161.253 39.0083 160.812 39.5376 160.265 39.9891C159.731 40.4283 159.126 40.7526 158.449 40.9619C157.773 41.1583 157.094 41.1719 156.412 41.0028C156.404 41.3805 156.51 41.693 156.731 41.9403C156.965 42.1753 157.248 42.3609 157.579 42.4971C157.911 42.6333 158.257 42.7312 158.619 42.7909C158.982 42.8376 159.306 42.869 159.592 42.8852C159.891 42.9022 160.172 42.8921 160.435 42.8549C160.698 42.8176 160.961 42.7739 161.225 42.7236C161.488 42.6734 161.752 42.6297 162.015 42.5924C162.291 42.5559 162.578 42.5462 162.877 42.5631C162.994 42.5698 163.111 42.5829 163.227 42.6026C163.343 42.6222 163.452 42.661 163.553 42.7189C163.655 42.7638 163.735 42.8401 163.794 42.9478C163.854 43.0425 163.88 43.1613 163.872 43.3043C163.858 43.5513 163.755 43.7541 163.564 43.9128C163.373 44.0585 163.131 44.1817 162.838 44.2824C162.559 44.3839 162.248 44.4576 161.906 44.5034C161.565 44.5362 161.231 44.5629 160.904 44.5834C160.591 44.5917 160.297 44.5881 160.024 44.5726C159.764 44.5709 159.568 44.5663 159.438 44.5589C158.606 44.5117 157.866 44.3392 157.218 44.0416C156.57 43.731 156.032 43.3287 155.604 42.8349C155.176 42.3281 154.858 41.7362 154.648 41.0591C154.453 40.3699 154.378 39.6157 154.425 38.7967ZM156.564 37.6466C156.538 38.1016 156.578 38.4364 156.683 38.651C156.801 38.8664 157.101 38.9878 157.582 39.0151C157.92 39.0343 158.254 38.9946 158.586 38.896C158.918 38.7845 159.221 38.6256 159.493 38.4194C159.779 38.2139 160.008 37.966 160.181 37.6759C160.354 37.3858 160.451 37.0652 160.47 36.7142C160.482 36.5192 160.473 36.3166 160.446 36.1064C160.432 35.8969 160.378 35.7047 160.283 35.5298C160.19 35.3419 160.061 35.1912 159.898 35.0776C159.749 34.9517 159.544 34.8814 159.284 34.8666C158.894 34.8445 158.532 34.9152 158.196 35.0787C157.875 35.23 157.595 35.4424 157.358 35.7158C157.122 35.9763 156.935 36.2787 156.798 36.6231C156.662 36.9544 156.584 37.2956 156.564 37.6466ZM55.8377 52.0776C55.8569 51.7396 55.955 51.5039 56.1321 51.3705C56.31 51.2241 56.5874 51.1616 56.9644 51.183L57.1594 51.1941C57.1866 51.4043 57.2184 51.6473 57.2549 51.9233C57.2914 52.1992 57.3536 52.4832 57.4413 52.7751C57.5291 53.067 57.6375 53.3405 57.7664 53.5956C57.8962 53.8377 58.061 54.0362 58.2608 54.191C58.2997 53.7367 58.4349 53.3075 58.6665 52.9033C58.9119 52.4869 59.1998 52.125 59.5302 51.8177C59.8744 51.4982 60.2413 51.2386 60.6308 51.039C61.0341 50.8272 61.4264 50.6929 61.8079 50.6363L62.2369 50.6607C62.8609 50.6961 63.3857 50.8694 63.8115 51.1805C64.238 51.4786 64.5813 51.8632 64.8415 52.3345C65.1154 52.7934 65.3141 53.3133 65.4376 53.8942C65.5612 54.475 65.6449 55.0667 65.689 55.6691C65.7468 56.2593 65.7663 56.8342 65.7476 57.3939C65.7426 57.9414 65.729 58.4102 65.7069 58.8001L64.2834 58.7193C64.2497 57.9349 64.1946 57.1819 64.1182 56.4602C64.0954 56.172 64.0604 55.8701 64.0131 55.5544C63.9666 55.2257 63.912 54.9226 63.8495 54.6452C63.7878 54.3548 63.718 54.09 63.6403 53.8508C63.5634 53.5987 63.4712 53.3848 63.3638 53.2091C63.3147 53.1542 63.2473 53.0786 63.1614 52.9825C63.0886 52.887 63.0093 52.7912 62.9234 52.6951C62.8376 52.5989 62.7575 52.5161 62.6832 52.4467C62.6089 52.3772 62.5653 52.3422 62.5523 52.3414C62.1682 52.2153 61.8257 52.2741 61.525 52.5179C61.225 52.7486 60.9523 53.0722 60.7069 53.4887C60.4616 53.9051 60.2519 54.3823 60.0779 54.9202C59.9169 55.4588 59.7765 55.979 59.6567 56.4808C59.5377 56.9697 59.448 57.4015 59.3875 57.7762C59.3279 58.138 59.2893 58.3576 59.2719 58.4348C58.9336 58.6504 58.6241 58.7045 58.3432 58.5973C58.0631 58.477 57.802 58.2535 57.5597 57.9268C57.3304 57.6008 57.125 57.1979 56.9436 56.718C56.7752 56.239 56.6212 55.7347 56.4817 55.2051C56.343 54.6625 56.2173 54.1206 56.1045 53.5795C56.0048 53.0391 55.9158 52.5385 55.8377 52.0776ZM66.9797 55.3316C67.0255 54.5256 67.2564 53.7888 67.6725 53.1212C68.0894 52.4406 68.6173 51.8706 69.2564 51.4113C69.9092 50.9398 70.6272 50.5828 71.4104 50.3403C72.2066 50.0986 73.0012 50.0002 73.7942 50.0453C74.2362 50.0704 74.6181 50.2355 74.9399 50.5407C75.2746 50.8466 75.5472 51.2142 75.7576 51.6435C75.9687 52.0598 76.1198 52.4987 76.211 52.9604C76.3152 53.4228 76.3577 53.8229 76.3385 54.1609C76.2971 54.8889 76.0814 55.5875 75.6913 56.2565C75.3019 56.9126 74.8126 57.4913 74.2234 57.9925C73.6348 58.4808 72.9804 58.8675 72.2599 59.1526C71.5395 59.4378 70.8283 59.5604 70.1263 59.5206C69.5023 59.4851 68.9817 59.3512 68.5645 59.1189C68.148 58.8735 67.8198 58.568 67.5797 58.2022C67.3404 57.8235 67.1694 57.3899 67.0667 56.9015C66.9777 56.4009 66.9487 55.8776 66.9797 55.3316ZM68.6261 55.6207C68.607 55.9587 68.616 56.2591 68.6532 56.5221C68.7042 56.7728 68.796 56.9932 68.9287 57.1833C69.0744 57.3741 69.2677 57.5286 69.5088 57.6466C69.7507 57.7516 70.0536 57.8145 70.4176 57.8351C70.8986 57.8625 71.3869 57.7598 71.8827 57.5271C72.3792 57.2814 72.8274 56.9677 73.2273 56.5861C73.6409 56.1923 73.9787 55.755 74.2407 55.2743C74.5028 54.7936 74.6471 54.3192 74.6737 53.8512C74.6855 53.6432 74.6789 53.4146 74.6539 53.1654C74.6289 52.9162 74.5769 52.685 74.4977 52.4719C74.4185 52.2587 74.2984 52.0758 74.1376 51.9232C73.9767 51.7706 73.7662 51.6869 73.5062 51.6722C73.2722 51.6589 72.9883 51.721 72.6545 51.8586C72.3336 51.9969 71.9907 52.1795 71.6257 52.4066C71.2736 52.6344 70.9198 52.8947 70.5641 53.1875C70.2213 53.4811 69.9046 53.7761 69.6139 54.0726C69.3232 54.3691 69.0852 54.6556 68.9 54.932C68.7278 55.2091 68.6365 55.4387 68.6261 55.6207ZM89.5611 59.7045C89.7773 59.5733 90.0346 59.4053 90.3331 59.2006C90.6454 58.9836 90.9584 58.7535 91.2722 58.5105C91.586 58.2675 91.8809 58.0104 92.1572 57.7391C92.4334 57.4679 92.6504 57.2063 92.8082 56.9544C92.9797 56.6903 93.0721 56.4412 93.0854 56.2072C93.0986 55.9732 92.9927 55.7716 92.7676 55.6023C92.3516 55.5787 91.8955 55.5724 91.3993 55.5833C90.9038 55.5813 90.409 55.5662 89.9151 55.5382C89.4218 55.4971 88.9434 55.4243 88.4798 55.3198C88.0292 55.2159 87.6279 55.0497 87.2757 54.821C86.9235 54.5923 86.6476 54.2832 86.448 53.8937C86.2621 53.4919 86.1862 52.992 86.2201 52.394C86.26 51.692 86.4258 51.0689 86.7175 50.5247C87.023 49.9682 87.4089 49.488 87.8753 49.0841C88.3424 48.6672 88.8581 48.3117 89.4226 48.0177C90.0008 47.7114 90.576 47.4572 91.1483 47.2549C91.4811 47.3651 91.7839 47.5453 92.0566 47.7956C92.3293 48.0458 92.5615 48.3198 92.7533 48.6176C92.6461 48.8984 92.4515 49.1091 92.1697 49.2496C91.9008 49.3908 91.5876 49.51 91.2299 49.6071C90.8853 49.7049 90.5208 49.8081 90.1364 49.9167C89.752 50.0253 89.3976 50.1812 89.073 50.3845C88.7622 50.5755 88.4928 50.8406 88.2649 51.1798C88.0377 51.506 87.9083 51.9486 87.8765 52.5076C87.8529 52.9236 87.9396 53.235 88.1365 53.4418C88.3334 53.6486 88.5987 53.8006 88.9322 53.8978C89.2665 53.982 89.6486 54.0298 90.0783 54.0411C90.5088 54.0395 90.9461 54.0317 91.3903 54.0178C91.8475 54.0046 92.2906 54.0102 92.7196 54.0346C93.1494 54.0459 93.5299 54.1197 93.8613 54.2559C94.1934 54.3791 94.4499 54.5697 94.6309 54.8278C94.8248 55.0866 94.9082 55.4565 94.8809 55.9375C94.8691 56.1455 94.7824 56.4079 94.621 56.7248C94.4725 57.0424 94.2706 57.3831 94.0152 57.7468C93.7735 58.0982 93.4864 58.4471 93.1537 58.7934C92.8341 59.1404 92.4967 59.4538 92.1418 59.7336C91.8005 60.0012 91.4554 60.2229 91.1063 60.3987C90.771 60.5622 90.4603 60.6359 90.1743 60.6196C89.9013 60.6041 89.7249 60.4963 89.6449 60.2961C89.578 60.0967 89.5501 59.8995 89.5611 59.7045ZM95.7893 53.7198C95.8609 52.4588 96.2065 51.5394 96.8262 50.9616C97.4459 50.3838 98.3602 50.1293 99.5692 50.1979C100.063 50.2259 100.568 50.3002 101.082 50.4208C101.61 50.542 102.089 50.7322 102.517 50.9913C102.947 51.2374 103.286 51.5697 103.537 51.9882C103.8 52.4074 103.913 52.9355 103.877 53.5725C103.837 54.2745 103.644 54.9286 103.296 55.5349C102.962 56.1289 102.546 56.6857 102.047 57.2051C101.562 57.7123 101.026 58.184 100.441 58.6202C99.869 59.0442 99.3308 59.4506 98.8262 59.8393C98.7973 59.8898 98.765 59.9988 98.7294 60.1663C98.7075 60.3216 98.6951 60.4252 98.6922 60.4772C98.6678 60.9062 98.767 61.3422 98.9896 61.7852C99.2245 62.242 99.4789 62.6999 99.7528 63.1588C100.026 63.6308 100.272 64.1143 100.492 64.6093C100.712 65.1043 100.807 65.6118 100.777 66.1318C100.76 66.4438 100.684 66.6222 100.551 66.6668C100.418 66.7244 100.143 66.7414 99.7268 66.7178C99.4727 66.599 99.2268 66.3373 98.9889 65.9325C98.7633 65.5415 98.5364 65.0591 98.3081 64.4853C98.0929 63.9123 97.8817 63.2678 97.6745 62.5518C97.4796 61.8495 97.292 61.1346 97.1116 60.407C96.9449 59.6672 96.784 58.9408 96.6289 58.2277C96.4875 57.5024 96.3622 56.8367 96.2532 56.2306C96.1441 55.6245 96.0433 55.1036 95.9506 54.6679C95.8717 54.22 95.818 53.904 95.7893 53.7198ZM97.4368 53.9894C97.4257 54.1844 97.4225 54.4711 97.4271 54.8496C97.4324 55.2151 97.4638 55.582 97.5211 55.9504C97.5914 56.3196 97.7034 56.6455 97.8569 56.9281C98.0111 57.1977 98.2377 57.3409 98.5367 57.3579C98.9397 57.3808 99.3504 57.2672 99.7689 57.0171C100.2 56.7677 100.584 56.4439 100.92 56.0456C101.268 55.648 101.553 55.2208 101.775 54.7639C102.01 54.2947 102.139 53.8651 102.161 53.4751C102.18 53.1501 102.116 52.8922 101.97 52.7013C101.825 52.4974 101.632 52.3365 101.391 52.2185C101.164 52.0882 100.914 52.0023 100.643 51.9608C100.372 51.9063 100.113 51.8721 99.8662 51.858C99.1252 51.816 98.5418 51.985 98.1159 52.3651C97.7038 52.733 97.4774 53.2744 97.4368 53.9894ZM113.112 59.3983C112.599 59.7083 112.153 59.9894 111.773 60.2418C111.408 60.4818 111.051 60.6833 110.702 60.8461C110.354 61.0089 109.982 61.1247 109.587 61.1936C109.205 61.2632 108.734 61.2821 108.175 61.2504C106.966 61.1817 106.087 60.8123 105.539 60.1421C104.99 59.4589 104.753 58.4803 104.825 57.2063C104.853 56.7123 104.947 56.2025 105.107 55.6769C105.268 55.1513 105.486 54.6355 105.763 54.1295C106.053 53.6113 106.387 53.1281 106.764 52.68C107.143 52.219 107.563 51.819 108.026 51.4801C108.488 51.1412 108.973 50.8818 109.478 50.7018C109.998 50.5096 110.537 50.4293 111.096 50.4611C112.027 50.6052 112.748 50.8809 113.26 51.2882C113.772 51.6824 114.148 52.1798 114.388 52.7803C114.629 53.3678 114.781 54.022 114.844 54.7429C114.908 55.4508 114.945 56.1832 114.954 56.9402C114.976 57.6978 115.011 58.4563 115.06 59.2154C115.108 59.9746 115.257 60.6808 115.507 61.334C115.313 61.7534 115.134 62.0432 114.968 62.2033C114.815 62.3772 114.65 62.4005 114.475 62.2732C114.3 62.1458 114.102 61.8476 113.88 61.3786C113.672 60.9103 113.416 60.2502 113.112 59.3983ZM106.48 57.3394C106.438 58.0804 106.544 58.6341 106.797 59.0006C107.064 59.3549 107.554 59.5523 108.269 59.5929C108.802 59.6231 109.315 59.5609 109.806 59.4062C110.311 59.2393 110.755 59.0036 111.137 58.6993C111.52 58.382 111.836 57.9956 112.083 57.5401C112.331 57.0847 112.471 56.571 112.503 55.999C112.517 55.765 112.542 55.4403 112.578 55.0251C112.616 54.5968 112.614 54.1728 112.572 53.7532C112.531 53.3335 112.428 52.969 112.263 52.6596C112.098 52.3373 111.834 52.1658 111.47 52.1451C110.794 52.1068 110.16 52.2468 109.568 52.5654C108.977 52.8709 108.458 53.2783 108.012 53.7877C107.566 54.2971 107.207 54.8701 106.936 55.5068C106.666 56.1305 106.514 56.7414 106.48 57.3394ZM116.73 53.911C116.749 53.586 116.815 53.3354 116.929 53.1593C117.057 52.984 117.302 52.9066 117.666 52.9273C117.705 52.9295 117.776 52.9401 117.88 52.959C117.997 52.9656 118.068 52.9697 118.094 52.9711C118.162 53.3793 118.228 53.8265 118.292 54.3126C118.369 54.7865 118.459 55.2677 118.562 55.7561C118.665 56.2444 118.781 56.727 118.91 57.2039C119.053 57.6815 119.23 58.1154 119.443 58.5057C119.691 58.272 119.876 57.9891 120 57.657C120.123 57.3249 120.22 56.9913 120.291 56.6563C120.363 56.3082 120.427 55.9793 120.484 55.6695C120.555 55.3475 120.668 55.08 120.823 54.8672C120.979 54.6413 121.197 54.4841 121.476 54.3956C121.768 54.3078 122.158 54.33 122.646 54.462C123.192 54.493 123.621 54.6217 123.935 54.8482C124.249 55.0616 124.514 55.331 124.73 55.6563C124.96 55.9693 125.176 56.3076 125.377 56.6711C125.591 57.0224 125.867 57.3445 126.202 57.6374C126.29 57.4729 126.399 57.2704 126.53 57.0301C126.662 56.7767 126.82 56.5183 127.004 56.2549C127.203 55.9793 127.407 55.7105 127.617 55.4485C127.842 55.1743 128.071 54.933 128.304 54.7246C128.538 54.5031 128.777 54.3275 129.019 54.1978C129.262 54.0551 129.494 53.99 129.715 54.0026C130.248 54.0328 130.699 54.228 131.07 54.5882C131.442 54.9353 131.75 55.3701 131.994 55.8926C132.252 56.4029 132.454 56.9751 132.601 57.6095C132.748 58.2308 132.857 58.8304 132.929 59.4083C133 59.9862 133.042 60.5168 133.054 61C133.079 61.4709 133.086 61.8104 133.074 62.0184C133.065 62.1874 133.018 62.3152 132.935 62.4017C132.852 62.4883 132.75 62.5543 132.63 62.5996C132.511 62.632 132.38 62.6506 132.236 62.6555C132.105 62.6611 131.981 62.6606 131.864 62.654C131.838 62.6525 131.799 62.6503 131.747 62.6473C131.696 62.6314 131.638 62.615 131.574 62.5984C131.523 62.5824 131.452 62.5588 131.363 62.5277L130.426 56.6253C130.429 56.5863 130.381 56.5118 130.283 56.4019C130.185 56.279 130.111 56.2031 130.061 56.1741C130.022 56.1719 129.99 56.1636 129.964 56.1491C129.938 56.1476 129.919 56.1465 129.906 56.1458C129.894 56.132 129.881 56.1248 129.868 56.1241C129.595 56.1086 129.329 56.2043 129.069 56.4113C128.823 56.619 128.586 56.8859 128.359 57.2121C128.131 57.5383 127.915 57.9042 127.709 58.3099C127.504 58.7156 127.318 59.1223 127.151 59.5302C126.985 59.9251 126.834 60.2947 126.697 60.6391C126.574 60.9712 126.474 61.2264 126.399 61.4047C126.346 61.4277 126.24 61.4478 126.083 61.465C125.926 61.4691 125.821 61.4697 125.769 61.4667C125.405 61.4461 125.133 61.3067 124.952 61.0486C124.772 60.7776 124.627 60.4498 124.519 60.0655C124.423 59.6818 124.342 59.2664 124.277 58.8193C124.224 58.3598 124.144 57.9379 124.035 57.5536C123.94 57.1699 123.788 56.8483 123.582 56.5888C123.388 56.317 123.097 56.17 122.707 56.1479C122.564 56.1397 122.419 56.275 122.273 56.5536C122.127 56.8322 121.989 57.1896 121.86 57.6257C121.731 58.0488 121.607 58.5112 121.488 59.0131C121.369 59.5019 121.264 59.9655 121.174 60.4038C121.098 60.8298 121.038 61.1916 120.995 61.4891C120.952 61.7866 120.93 61.9354 120.93 61.9354C120.902 61.9729 120.848 62.0155 120.767 62.063C120.686 62.0976 120.599 62.1383 120.505 62.1851C120.424 62.2327 120.338 62.2669 120.245 62.2877C120.166 62.3093 120.107 62.319 120.068 62.3168C119.704 62.2961 119.362 62.1137 119.042 61.7695C118.723 61.4123 118.436 60.9656 118.179 60.4294C117.937 59.8809 117.716 59.2815 117.518 58.6312C117.334 57.9817 117.181 57.347 117.059 56.7271C116.938 56.1073 116.846 55.5478 116.783 55.0486C116.733 54.5502 116.715 54.171 116.73 53.911ZM135.015 61.8039C135.15 61.8115 135.278 61.8605 135.398 61.9508C135.529 62.0417 135.606 62.1504 135.63 62.277C135.665 62.3937 135.627 62.5219 135.514 62.6616C135.402 62.8013 135.171 62.9238 134.82 63.0292C134.542 62.9716 134.343 62.8925 134.224 62.7918C134.115 62.6813 134.053 62.5735 134.038 62.4683C134.035 62.3533 134.067 62.2456 134.135 62.1451C134.214 62.0349 134.303 61.946 134.401 61.8785C134.509 61.8012 134.622 61.7554 134.737 61.7411C134.853 61.7164 134.946 61.7373 135.015 61.8039ZM134.433 51.3791C134.729 51.135 134.951 51.0902 135.098 51.2447C135.246 51.3992 135.345 51.6813 135.395 52.091C135.455 52.5013 135.474 52.9928 135.452 53.5653C135.43 54.1275 135.403 54.705 135.369 55.2978C135.346 55.8912 135.324 56.4534 135.304 56.9844C135.295 57.5159 135.318 57.9398 135.373 58.2559C135.364 58.4119 135.346 58.5465 135.319 58.6598C135.292 58.773 135.25 58.8645 135.194 58.9344C135.138 59.0042 135.051 59.0567 134.934 59.0918C134.818 59.1165 134.667 59.1235 134.479 59.1129C134.448 59.1111 134.418 59.0938 134.388 59.0608C134.359 59.0278 134.333 58.9376 134.31 58.7903C134.288 58.6325 134.27 58.3967 134.256 58.083C134.243 57.7588 134.237 57.3098 134.239 56.7361C134.25 56.1629 134.265 55.4438 134.283 54.5789C134.311 53.7145 134.361 52.6479 134.433 51.3791Z" fill="#00A7B7"/>
</svg>
